<svg width="208" height="31" viewBox="0 0 208 31" fill="none" xmlns="http://www.w3.org/2000/svg">
<g clip-path="url(#clip0)">
<path d="M5.17563 28.5457C5.17563 27.99 4.98495 27.5214 4.60903 27.1346C4.23312 26.7478 3.77549 26.5571 3.24158 26.5571C2.7567 26.5571 2.3372 26.7097 1.98308 27.0202C1.63441 27.3253 1.41649 27.6958 1.33477 28.1371H0.817205V26.6388H0V30.4525H0.817205V28.8998H1.33477C1.41649 29.3629 1.63441 29.7551 1.98308 30.0657C2.33176 30.3762 2.75126 30.5342 3.24158 30.5342C3.77549 30.5342 4.23312 30.3435 4.60903 29.9567C4.98495 29.5753 5.17563 29.1014 5.17563 28.5457ZM4.35842 28.5457C4.35842 28.9052 4.24946 29.2049 4.03154 29.4391C3.80817 29.6788 3.54667 29.7987 3.24158 29.7987C2.93649 29.7987 2.67498 29.6788 2.45706 29.4391C2.23369 29.2049 2.12473 28.9052 2.12473 28.5457C2.12473 28.1861 2.23369 27.8864 2.45706 27.6467C2.67498 27.4125 2.93649 27.2926 3.24158 27.2926C3.54667 27.2926 3.80817 27.4125 4.03154 27.6467C4.24946 27.8864 4.35842 28.1861 4.35842 28.5457Z" fill="white"/>
<path d="M6.4801 26.6392V30.4528H7.29731V29.1997H8.08727C8.47953 29.1997 8.80641 29.0744 9.06247 28.8293C9.31853 28.5841 9.44928 28.279 9.44928 27.9194C9.44928 27.5544 9.31853 27.2548 9.06247 27.0042C8.80096 26.759 8.47953 26.6392 8.08727 26.6392H6.4801ZM8.06003 27.3746C8.22347 27.3746 8.35967 27.4291 8.46863 27.5326C8.57759 27.6361 8.63207 27.7669 8.63207 27.9194C8.63207 28.072 8.57759 28.2027 8.46863 28.3063C8.35967 28.4098 8.22347 28.4642 8.06003 28.4642H7.29731V27.3746H8.06003Z" fill="white"/>
<path d="M14.1309 30.4528V26.6392H13.4226L11.543 29.0635V26.6392H10.7258V30.4528H11.4341L13.3136 28.0284V30.4528H14.1309Z" fill="white"/>
<path d="M15.1622 29.7173V31.2427H15.9794V30.4528H18.2676V31.2427H19.0848V29.7173H18.6217V26.6392H15.9794V27.8105C15.9794 28.0665 15.9576 28.3063 15.9141 28.5296C15.8705 28.7584 15.8214 28.9382 15.7724 29.0744C15.7179 29.2052 15.658 29.325 15.5872 29.4394C15.5164 29.5484 15.4728 29.6192 15.4455 29.6519C15.4128 29.6792 15.3965 29.7064 15.3802 29.7173H15.1622ZM16.7966 27.8105V27.3746H17.8045V29.7173H16.1974L16.2627 29.6519C16.3009 29.6083 16.3499 29.5375 16.4098 29.434C16.4698 29.3305 16.5242 29.2106 16.5842 29.0744C16.6441 28.9382 16.6931 28.753 16.7313 28.5296C16.7748 28.3063 16.7966 28.0665 16.7966 27.8105Z" fill="white"/>
<path d="M23.6558 30.4528V26.6392H22.9475L21.0679 29.0635V26.6392H20.2507V30.4528H20.959L22.8385 28.0284V30.4528H23.6558Z" fill="white"/>
<path d="M25.9409 26.6392H25.1237V27.8105C25.1237 28.2681 25.2435 28.6222 25.4832 28.8729C25.7284 29.1289 26.0607 29.2542 26.4857 29.2542C26.8507 29.2542 27.1503 29.1834 27.3846 29.0363V30.4528H28.2018V26.6392H27.3846V28.2463L27.292 28.3172C27.232 28.3607 27.1394 28.4043 27.0141 28.4534C26.8888 28.4969 26.7581 28.5187 26.6219 28.5187C26.4039 28.5187 26.2351 28.4588 26.1152 28.3389C26.0008 28.2136 25.9409 28.0393 25.9409 27.8105V26.6392Z" fill="white"/>
<path d="M32.9928 26.6392H32.1756V28.1646H30.5412V26.6392H29.724V30.4528H30.5412V28.9001H32.1756V30.4528H32.9928V26.6392Z" fill="white"/>
<path d="M36.4775 28.8456H35.5513L36.0144 27.5926L36.4775 28.8456ZM36.7499 29.5539L37.0767 30.4528H37.9484L36.4502 26.6392H35.5785L34.0803 30.4528H34.952L35.2789 29.5539H36.7499Z" fill="white"/>
<path d="M41.5112 26.6392H40.694V30.4528H41.5112V29.3632L42.0015 28.8184L43.1183 30.4528H44.0717L42.5463 28.2191L43.9628 26.6392H43.0094L41.5112 28.3008V26.6392Z" fill="white"/>
<path d="M45.7307 28.5457C45.7307 28.197 45.8505 27.8973 46.0902 27.6576C46.3245 27.4125 46.6133 27.2926 46.9565 27.2926C47.2997 27.2926 47.5885 27.4125 47.8227 27.6576C48.0624 27.8973 48.1823 28.197 48.1823 28.5457C48.1823 28.8998 48.0624 29.194 47.8227 29.4337C47.5885 29.6789 47.2997 29.7987 46.9565 29.7987C46.6133 29.7987 46.3245 29.6789 46.0902 29.4337C45.8505 29.194 45.7307 28.8998 45.7307 28.5457ZM44.8862 28.5457C44.8862 29.0905 45.0878 29.5644 45.4855 29.9513C45.8832 30.3381 46.3735 30.5342 46.9565 30.5342C47.5394 30.5342 48.0297 30.3381 48.4275 29.9513C48.8252 29.5644 49.0267 29.0905 49.0267 28.5457C49.0267 27.9954 48.8252 27.5269 48.4275 27.1401C48.0297 26.7533 47.5394 26.5571 46.9565 26.5571C46.3735 26.5571 45.8832 26.7533 45.4855 27.1401C45.0878 27.5269 44.8862 27.9954 44.8862 28.5457Z" fill="white"/>
<path d="M52.3742 28.3008L51.0667 26.6392H50.3312V30.4528H51.1484V27.9194L52.3742 29.4721L53.6 27.9086V30.4528H54.4172V26.6392H53.6926L52.3742 28.3008Z" fill="white"/>
<path d="M59.1797 26.6392H55.9381V30.4528H56.7553V27.3746H58.3625V30.4528H59.1797V26.6392Z" fill="white"/>
<path d="M62.665 28.8456H61.7388L62.2019 27.5926L62.665 28.8456ZM62.9374 29.5539L63.2642 30.4528H64.1359L62.6377 26.6392H61.766L60.2678 30.4528H61.1395L61.4664 29.5539H62.9374Z" fill="white"/>
<path d="M68.4916 26.6392H67.6744V28.1646H66.04V26.6392H65.2228V30.4528H66.04V28.9001H67.6744V30.4528H68.4916V26.6392Z" fill="white"/>
<path d="M70.831 26.6392H70.0138V30.4528H70.831V26.6392Z" fill="white"/>
<path d="M75.1863 26.6392H73.4974C73.1161 26.6392 72.8055 26.759 72.5604 26.9987C72.3152 27.2384 72.1899 27.5381 72.1899 27.8922C72.1899 28.0448 72.2172 28.1864 72.2607 28.3226C72.3098 28.4588 72.3642 28.5623 72.4296 28.6386C72.4896 28.7149 72.5549 28.7857 72.6367 28.8511C72.7129 28.9164 72.7674 28.96 72.8001 28.9764C72.8273 28.9873 72.8546 29.0036 72.8709 29.0091L72.0537 30.4528H72.9254L73.6609 29.118H74.3691V30.4528H75.1863V26.6392ZM73.0071 27.8922C73.0071 27.7397 73.0561 27.6198 73.1542 27.5217C73.2523 27.4237 73.3776 27.3746 73.5247 27.3746H74.3691V28.3825H73.5247C73.3776 28.3825 73.2523 28.3335 73.1542 28.2409C73.0561 28.1483 73.0071 28.0284 73.0071 27.8922Z" fill="white"/>
<path d="M2.49057 0H0V17.9875H2.49057V11.3143C2.49057 10.1854 2.77137 9.29477 3.33296 8.6676C3.89456 8.04042 4.66371 7.71429 5.61598 7.71429C6.43396 7.71429 7.11765 8.01533 7.66704 8.59233C8.21643 9.18188 8.49722 9.92195 8.49722 10.8125V18H11V10.8125C11 9.15679 10.5483 7.85226 9.64484 6.87387C8.7414 5.89547 7.55716 5.40627 6.11654 5.40627C5.70144 5.40627 5.28635 5.45645 4.88346 5.56934C4.46837 5.68223 4.13873 5.80767 3.87014 5.94564C3.60155 6.08362 3.34517 6.23415 3.11321 6.40976C2.88124 6.58537 2.72253 6.7108 2.64928 6.78606C2.57603 6.86132 2.51498 6.9115 2.49057 6.94913V0Z" fill="#F0145A"/>
<path d="M16.5675 0H14V17.9725H16.5675V0Z" fill="white"/>
<path d="M31.7111 12.709L31.8395 11.4252C31.8395 9.70501 31.2747 8.2672 30.1193 7.11183C28.9639 5.95645 27.5261 5.3916 25.8059 5.3916C24.0857 5.3916 22.5965 6.0078 21.3641 7.2402C20.1317 8.4726 19.5155 9.93608 19.5155 11.682C19.5155 13.4792 20.1574 15.0197 21.4155 16.3035C22.6735 17.5872 24.1884 18.2291 25.9343 18.2291C26.6018 18.2291 27.218 18.1264 27.8342 17.9467C28.4504 17.7413 28.9639 17.5359 29.3234 17.3305C29.7085 17.0994 30.0936 16.8427 30.4274 16.5602C30.7612 16.2778 30.9922 16.0724 31.0949 15.944C31.1976 15.8157 31.2747 15.7386 31.326 15.6616L29.6571 13.9927L29.272 14.4806C29.0153 14.7887 28.5788 15.0968 27.9626 15.4305C27.3207 15.7643 26.6532 15.9184 25.9343 15.9184C24.9329 15.9184 24.0857 15.6103 23.3668 14.9684C22.6479 14.3265 22.2114 13.5819 22.083 12.709H31.7111ZM25.8059 7.57398C26.7559 7.57398 27.5261 7.8564 28.168 8.39558C28.7842 8.96043 29.1693 9.65366 29.3234 10.5266H22.1857C22.4168 9.65366 22.8276 8.96043 23.4695 8.39558C24.0857 7.8564 24.8816 7.57398 25.8059 7.57398Z" fill="white"/>
<path d="M43.6855 17.2278C43.6855 18.3575 43.3518 19.2818 42.6585 20.0007C41.991 20.6939 41.1437 21.0534 40.091 21.0534C39.6289 21.0534 39.1667 20.9763 38.7303 20.848C38.2938 20.7196 37.96 20.5655 37.6776 20.3858C37.3952 20.2061 37.1384 20.0264 36.8817 19.7953C36.6506 19.5642 36.4965 19.4102 36.4195 19.3331C36.3425 19.2561 36.2911 19.1791 36.2398 19.1277L34.5709 20.7966L34.7763 21.0534C34.9047 21.2331 35.1358 21.4642 35.4439 21.7209C35.752 21.952 36.1114 22.2087 36.5222 22.4655C36.933 22.6966 37.4465 22.902 38.0884 23.0817C38.7303 23.2614 39.3978 23.3641 40.091 23.3641C41.8369 23.3641 43.2747 22.7736 44.4815 21.5925C45.6625 20.3858 46.253 18.948 46.253 17.2021V5.64835H43.6855V6.9321L43.2491 6.54698C42.9666 6.29023 42.5302 6.03348 41.914 5.77673C41.2978 5.51998 40.6302 5.3916 39.9627 5.3916C38.3965 5.3916 37.0614 5.98213 35.906 7.18885C34.7506 8.39558 34.1858 9.83338 34.1858 11.5536C34.1858 13.2738 34.7506 14.7116 35.906 15.9184C37.0614 17.1251 38.3965 17.7156 39.9627 17.7156C40.3991 17.7156 40.8099 17.6643 41.2464 17.5616C41.6572 17.4332 41.991 17.3048 42.2734 17.1764C42.5558 17.0481 42.8126 16.894 43.0437 16.7143C43.2747 16.5346 43.4545 16.4062 43.5058 16.3548L43.6855 16.1751V17.2278ZM36.7533 11.5536C36.7533 10.4753 37.0871 9.57663 37.7803 8.83205C38.4735 8.08748 39.2951 7.70235 40.2194 7.70235C41.1437 7.70235 41.9653 8.08748 42.6585 8.83205C43.3261 9.57663 43.6855 10.4753 43.6855 11.5536C43.6855 12.632 43.3261 13.5306 42.6585 14.2752C41.9653 15.0197 41.1437 15.4049 40.2194 15.4049C39.2951 15.4049 38.4735 15.0197 37.7803 14.2752C37.0871 13.5306 36.7533 12.632 36.7533 11.5536Z" fill="white"/>
<path d="M59.6544 17.9724V10.0131C59.6544 8.70368 59.1666 7.59965 58.2166 6.7267C57.2666 5.82808 56.0342 5.3916 54.5194 5.3916C53.9289 5.3916 53.3383 5.46863 52.7735 5.62268C52.2086 5.8024 51.7465 5.98213 51.4127 6.18753C51.0789 6.39293 50.7452 6.624 50.4371 6.90643C50.129 7.16318 49.9492 7.3429 49.8465 7.4456C49.7695 7.5483 49.6925 7.62533 49.6411 7.70235L51.31 9.37123L51.6438 8.93476C51.8492 8.65233 52.2086 8.39558 52.7478 8.11315C53.287 7.83073 53.8775 7.70235 54.5194 7.70235C55.264 7.70235 55.8802 7.93343 56.368 8.3699C56.8558 8.80638 57.0869 9.37123 57.0869 10.0131L52.5938 10.7834C51.4897 10.9631 50.5911 11.3996 49.9749 12.0928C49.333 12.786 48.9993 13.6333 48.9993 14.6346C48.9993 15.5846 49.4101 16.4062 50.2317 17.1251C51.0789 17.8697 52.1059 18.2291 53.364 18.2291C53.8005 18.2291 54.2113 18.1778 54.6221 18.0494C55.0586 17.9467 55.3923 17.8183 55.6748 17.6899C55.9572 17.5616 56.214 17.4075 56.445 17.2278C56.6761 17.0481 56.8302 16.9197 56.9329 16.8683C57.0099 16.7913 57.0612 16.7143 57.0869 16.6886V17.9724H59.6544ZM53.7491 15.9184C53.0816 15.9184 52.5424 15.7643 52.1573 15.4562C51.7465 15.1481 51.5668 14.7887 51.5668 14.3779C51.5668 13.9414 51.6951 13.5563 51.9776 13.2738C52.26 12.9914 52.6451 12.786 53.1073 12.709L57.0869 12.0671V12.3239C57.0869 13.4792 56.8045 14.3522 56.214 14.9941C55.6234 15.6103 54.8018 15.9184 53.7491 15.9184Z" fill="white"/>
<path d="M65.3201 0H62.7526V17.9725H65.3201V0Z" fill="white"/>
<path d="M76.9945 7.06048L76.8404 6.88075C76.7377 6.77805 76.5837 6.64968 76.3526 6.46995C76.1215 6.29023 75.8648 6.13618 75.5824 5.95645C75.2999 5.8024 74.9148 5.67403 74.4527 5.54565C73.9905 5.44295 73.5027 5.3916 73.0149 5.3916C71.7568 5.3916 70.7298 5.75105 69.9082 6.46995C69.0609 7.21453 68.6501 8.03613 68.6501 8.98611C68.6501 9.67933 68.8041 10.2442 69.1122 10.7577C69.4203 11.2455 69.8055 11.605 70.2933 11.8104C70.7555 12.0414 71.269 12.2725 71.8081 12.4522C72.3473 12.632 72.8351 12.786 73.323 12.9144C73.7851 13.0684 74.1702 13.2482 74.4783 13.4792C74.7864 13.7103 74.9405 14.0184 74.9405 14.3779C74.9405 14.84 74.7608 15.2251 74.427 15.5076C74.0932 15.7643 73.5797 15.9184 72.8865 15.9184C72.3216 15.9184 71.7568 15.7643 71.2176 15.5076C70.6784 15.2251 70.3447 14.9941 70.1649 14.8143C70.0109 14.6346 69.8825 14.4806 69.8055 14.3779L68.1366 16.0467L68.3163 16.2778C68.4447 16.4319 68.6244 16.6116 68.8812 16.817C69.1636 17.0481 69.4717 17.2535 69.8055 17.4589C70.1649 17.6643 70.6271 17.844 71.1663 17.998C71.7054 18.1521 72.296 18.2291 72.8865 18.2291C74.2473 18.2291 75.377 17.844 76.2242 17.0994C77.0715 16.3548 77.508 15.4305 77.508 14.3779C77.508 13.6846 77.3539 13.0941 77.0458 12.632C76.7377 12.1441 76.3526 11.7847 75.8648 11.5536C75.4026 11.2969 74.8891 11.0915 74.35 10.9117C73.8108 10.732 73.323 10.5523 72.8351 10.4496C72.373 10.3212 71.9879 10.1158 71.6798 9.88473C71.3717 9.65366 71.2176 9.34556 71.2176 8.98611C71.2176 8.65233 71.3717 8.34423 71.7054 8.08748C72.0135 7.83073 72.45 7.70235 73.0149 7.70235C73.4257 7.70235 73.8365 7.80505 74.2216 7.98478C74.6324 8.1645 74.9148 8.31855 75.0432 8.44693C75.1716 8.57531 75.2743 8.678 75.3256 8.72935L76.9945 7.06048Z" fill="white"/>
<path d="M97.9785 18H99.3145V8.88037H91.4287V18H92.7554V10.1328H97.9785V18ZM109.668 13.4448C109.668 14.4282 109.334 15.2632 108.685 15.9404C108.035 16.6177 107.247 16.9517 106.337 16.9517C105.428 16.9517 104.64 16.6177 103.99 15.9312C103.341 15.2446 103.016 14.4189 103.016 13.4355C103.016 12.4521 103.341 11.6265 103.99 10.9492C104.64 10.272 105.428 9.92871 106.337 9.92871C107.247 9.92871 108.035 10.272 108.685 10.9492C109.334 11.6265 109.668 12.4614 109.668 13.4448ZM101.689 13.4448C101.689 14.7808 102.135 15.9033 103.044 16.8218C103.953 17.731 105.048 18.1948 106.347 18.1948C107.636 18.1948 108.731 17.731 109.631 16.8218C110.54 15.9033 110.985 14.7808 110.985 13.4448C110.985 12.1089 110.54 10.9863 109.631 10.0679C108.731 9.14941 107.636 8.68555 106.347 8.68555C105.048 8.68555 103.953 9.14941 103.044 10.0679C102.135 10.9863 101.689 12.1089 101.689 13.4448ZM112.711 13.4355C112.711 14.7529 113.156 15.8755 114.056 16.8032C114.947 17.731 116.023 18.1855 117.266 18.1855C117.711 18.1855 118.147 18.1206 118.574 17.9814C119.001 17.8423 119.354 17.6938 119.623 17.5269C119.901 17.3599 120.161 17.1743 120.402 16.9609C120.652 16.7476 120.819 16.5991 120.894 16.5063C120.968 16.4136 121.023 16.3486 121.061 16.293L120.114 15.4395L119.808 15.8105C119.595 16.0703 119.251 16.3208 118.778 16.5713C118.296 16.8311 117.795 16.9517 117.266 16.9517C116.394 16.9517 115.633 16.6177 114.993 15.9404C114.353 15.2632 114.038 14.4282 114.038 13.4448C114.038 12.4614 114.353 11.6265 114.993 10.9492C115.633 10.272 116.394 9.92871 117.266 9.92871C117.609 9.92871 117.943 9.98438 118.259 10.0864C118.574 10.1978 118.825 10.3184 119.029 10.4482C119.224 10.5781 119.409 10.7358 119.576 10.9121C119.743 11.0977 119.854 11.2183 119.901 11.2832C119.957 11.3574 119.994 11.4038 120.012 11.4409L120.968 10.4946L120.569 10.0586C120.309 9.76172 119.864 9.45557 119.251 9.14941C118.639 8.84326 117.971 8.68555 117.257 8.68555C116.023 8.68555 114.956 9.14941 114.056 10.0771C113.156 11.0049 112.711 12.1182 112.711 13.4355ZM124.104 8.88037V11.543C124.104 13.0366 124.02 14.187 123.872 14.9941C123.723 15.792 123.538 16.3115 123.315 16.5342C123.092 16.7568 122.786 16.8682 122.396 16.8682C122.137 16.8682 121.886 16.8032 121.636 16.6826V18.0093L121.766 18.0464C121.84 18.0835 121.951 18.1113 122.109 18.1484C122.267 18.1763 122.424 18.1948 122.582 18.1948C123.037 18.1948 123.426 18.1021 123.751 17.9165C124.066 17.731 124.363 17.4062 124.632 16.9424C124.892 16.4785 125.096 15.792 125.226 14.9014C125.356 14.0107 125.43 12.8882 125.43 11.5522V10.1235H129.419V18.0093H130.755V8.88965L124.104 8.88037ZM135.784 19.3267C135.44 20.2822 134.865 20.7554 134.058 20.7554C133.743 20.7554 133.427 20.6904 133.112 20.5605V21.8037L133.242 21.8408C133.334 21.8779 133.483 21.915 133.668 21.9429C133.854 21.98 134.049 21.9893 134.253 21.9893C134.912 21.9893 135.459 21.7944 135.895 21.3862C136.322 20.978 136.73 20.2915 137.11 19.3267L141.294 8.88037H139.866L136.925 16.293L133.975 8.88037H132.546L136.257 18L135.784 19.3267ZM149.18 8.88037H143.104V18H144.43V10.1143H149.18V8.88037ZM157.734 8.88037L152.223 15.7178V8.88037H150.896V18H152.028L157.539 11.1626V18H158.875V8.88037H157.734Z" fill="white"/>
<path fill-rule="evenodd" clip-rule="evenodd" d="M176.998 13.351H170.888L173.58 5.18506L176.626 5.20301L174.858 10.5883L177.894 10.5901L176.998 13.351Z" fill="url(#paint0_linear)"/>
<path fill-rule="evenodd" clip-rule="evenodd" d="M164.524 23.9512H161.5C161.5 23.9512 167.008 7.04374 168.295 3.0969C168.896 1.25027 170.622 0 172.568 0H177.975C179.605 0 180.966 0.686832 181.812 1.84746C182.657 3.00814 182.897 4.49328 182.404 6.00835C181.911 7.52343 181.444 8.95362 181.017 10.264C180.441 12.0334 178.844 13.2526 176.998 13.3517C176.998 13.3517 176.989 13.3486 179.575 5.40888C179.804 4.70822 179.72 4.0224 179.362 3.53053C179.003 3.03872 178.399 2.74765 177.599 2.74765H172.96C172.049 2.74765 171.242 3.33271 170.96 4.19687L164.524 23.9512Z" fill="#F0145A"/>
<path fill-rule="evenodd" clip-rule="evenodd" d="M87.4489 0H90.5L82.5511 24H79.5L87.4489 0Z" fill="#F0145A"/>
</g>
<defs>
<linearGradient id="paint0_linear" x1="170.888" y1="11.7869" x2="177.677" y2="15.3448" gradientUnits="userSpaceOnUse">
<stop stop-color="#F0145A"/>
<stop offset="1" stop-color="#693264"/>
</linearGradient>
<clipPath id="clip0">
<rect width="208" height="31" fill="white"/>
</clipPath>
</defs>
</svg>
