<svg width="183" height="31" viewBox="0 0 183 31" fill="none" xmlns="http://www.w3.org/2000/svg">
<g clip-path="url(#clip0)">
<path d="M5.17563 28.5456C5.17563 27.9899 4.98495 27.5213 4.60903 27.1345C4.23312 26.7477 3.77549 26.557 3.24158 26.557C2.7567 26.557 2.3372 26.7096 1.98308 27.0201C1.63441 27.3252 1.41649 27.6957 1.33477 28.137H0.817205V26.6387H0V30.4524H0.817205V28.8997H1.33477C1.41649 29.3628 1.63441 29.755 1.98308 30.0656C2.33176 30.3761 2.75126 30.5341 3.24158 30.5341C3.77549 30.5341 4.23312 30.3434 4.60903 29.9566C4.98495 29.5752 5.17563 29.1013 5.17563 28.5456ZM4.35842 28.5456C4.35842 28.9051 4.24946 29.2048 4.03154 29.439C3.80817 29.6787 3.54667 29.7986 3.24158 29.7986C2.93649 29.7986 2.67498 29.6787 2.45706 29.439C2.23369 29.2048 2.12473 28.9051 2.12473 28.5456C2.12473 28.186 2.23369 27.8863 2.45706 27.6466C2.67498 27.4124 2.93649 27.2925 3.24158 27.2925C3.54667 27.2925 3.80817 27.4124 4.03154 27.6466C4.24946 27.8863 4.35842 28.186 4.35842 28.5456Z" fill="#46466E"/>
<path d="M6.48022 26.639V30.4526H7.29743V29.1995H8.08739C8.47965 29.1995 8.80653 29.0742 9.06259 28.8291C9.31865 28.5839 9.4494 28.2788 9.4494 27.9192C9.4494 27.5542 9.31865 27.2546 9.06259 27.004C8.80109 26.7588 8.47965 26.639 8.08739 26.639H6.48022ZM8.06015 27.3744C8.22359 27.3744 8.35979 27.4289 8.46876 27.5324C8.57772 27.636 8.6322 27.7667 8.6322 27.9192C8.6322 28.0718 8.57772 28.2025 8.46876 28.3061C8.35979 28.4096 8.22359 28.4641 8.06015 28.4641H7.29743V27.3744H8.06015Z" fill="#46466E"/>
<path d="M14.1309 30.4526V26.639H13.4226L11.543 29.0633V26.639H10.7258V30.4526H11.4341L13.3136 28.0282V30.4526H14.1309Z" fill="#46466E"/>
<path d="M15.1624 29.7171V31.2425H15.9796V30.4526H18.2677V31.2425H19.0849V29.7171H18.6219V26.639H15.9796V27.8103C15.9796 28.0663 15.9578 28.3061 15.9142 28.5294C15.8706 28.7582 15.8216 28.938 15.7725 29.0742C15.7181 29.205 15.6581 29.3248 15.5873 29.4392C15.5165 29.5482 15.4729 29.619 15.4457 29.6517C15.413 29.679 15.3966 29.7062 15.3803 29.7171H15.1624ZM16.7968 27.8103V27.3744H17.8046V29.7171H16.1975L16.2629 29.6517C16.301 29.6081 16.35 29.5373 16.41 29.4338C16.4699 29.3303 16.5244 29.2104 16.5843 29.0742C16.6442 28.938 16.6933 28.7528 16.7314 28.5294C16.775 28.3061 16.7968 28.0663 16.7968 27.8103Z" fill="#46466E"/>
<path d="M23.6558 30.4526V26.639H22.9475L21.0679 29.0633V26.639H20.2507V30.4526H20.959L22.8385 28.0282V30.4526H23.6558Z" fill="#46466E"/>
<path d="M25.9407 26.639H25.1235V27.8103C25.1235 28.2679 25.2434 28.622 25.4831 28.8727C25.7283 29.1287 26.0606 29.254 26.4855 29.254C26.8506 29.254 27.1502 29.1832 27.3845 29.0361V30.4526H28.2017V26.639H27.3845V28.2461L27.2919 28.317C27.2319 28.3605 27.1393 28.4041 27.014 28.4532C26.8887 28.4967 26.7579 28.5185 26.6217 28.5185C26.4038 28.5185 26.2349 28.4586 26.1151 28.3387C26.0007 28.2134 25.9407 28.0391 25.9407 27.8103V26.639Z" fill="#46466E"/>
<path d="M32.9929 26.639H32.1757V28.1644H30.5413V26.639H29.7241V30.4526H30.5413V28.8999H32.1757V30.4526H32.9929V26.639Z" fill="#46466E"/>
<path d="M36.4775 28.8454H35.5513L36.0144 27.5924L36.4775 28.8454ZM36.7499 29.5537L37.0767 30.4526H37.9484L36.4502 26.639H35.5785L34.0803 30.4526H34.952L35.2789 29.5537H36.7499Z" fill="#46466E"/>
<path d="M41.5111 26.639H40.6938V30.4526H41.5111V29.363L42.0014 28.8182L43.1182 30.4526H44.0716L42.5462 28.2189L43.9627 26.639H43.0093L41.5111 28.3006V26.639Z" fill="#46466E"/>
<path d="M45.7307 28.5456C45.7307 28.1969 45.8505 27.8972 46.0902 27.6575C46.3245 27.4124 46.6133 27.2925 46.9565 27.2925C47.2997 27.2925 47.5885 27.4124 47.8227 27.6575C48.0624 27.8972 48.1823 28.1969 48.1823 28.5456C48.1823 28.8997 48.0624 29.1939 47.8227 29.4336C47.5885 29.6788 47.2997 29.7986 46.9565 29.7986C46.6133 29.7986 46.3245 29.6788 46.0902 29.4336C45.8505 29.1939 45.7307 28.8997 45.7307 28.5456ZM44.8862 28.5456C44.8862 29.0904 45.0878 29.5643 45.4855 29.9512C45.8832 30.338 46.3735 30.5341 46.9565 30.5341C47.5394 30.5341 48.0297 30.338 48.4275 29.9512C48.8252 29.5643 49.0267 29.0904 49.0267 28.5456C49.0267 27.9953 48.8252 27.5268 48.4275 27.14C48.0297 26.7532 47.5394 26.557 46.9565 26.557C46.3735 26.557 45.8832 26.7532 45.4855 27.14C45.0878 27.5268 44.8862 27.9953 44.8862 28.5456Z" fill="#46466E"/>
<path d="M52.3743 28.3006L51.0668 26.639H50.3313V30.4526H51.1485V27.9192L52.3743 29.4719L53.6001 27.9084V30.4526H54.4173V26.639H53.6927L52.3743 28.3006Z" fill="#46466E"/>
<path d="M59.1798 26.639H55.9382V30.4526H56.7554V27.3744H58.3626V30.4526H59.1798V26.639Z" fill="#46466E"/>
<path d="M62.665 28.8454H61.7388L62.2019 27.5924L62.665 28.8454ZM62.9374 29.5537L63.2642 30.4526H64.1359L62.6377 26.639H61.766L60.2678 30.4526H61.1395L61.4664 29.5537H62.9374Z" fill="#46466E"/>
<path d="M68.4915 26.639H67.6743V28.1644H66.0399V26.639H65.2227V30.4526H66.0399V28.8999H67.6743V30.4526H68.4915V26.639Z" fill="#46466E"/>
<path d="M70.8309 26.639H70.0137V30.4526H70.8309V26.639Z" fill="#46466E"/>
<path d="M75.1863 26.639H73.4974C73.1161 26.639 72.8055 26.7588 72.5604 26.9985C72.3152 27.2382 72.1899 27.5379 72.1899 27.892C72.1899 28.0446 72.2172 28.1862 72.2607 28.3224C72.3098 28.4586 72.3642 28.5621 72.4296 28.6384C72.4896 28.7147 72.5549 28.7855 72.6367 28.8509C72.7129 28.9162 72.7674 28.9598 72.8001 28.9762C72.8273 28.9871 72.8546 29.0034 72.8709 29.0089L72.0537 30.4526H72.9254L73.6609 29.1178H74.3691V30.4526H75.1863V26.639ZM73.0071 27.892C73.0071 27.7395 73.0561 27.6196 73.1542 27.5215C73.2523 27.4235 73.3776 27.3744 73.5247 27.3744H74.3691V28.3823H73.5247C73.3776 28.3823 73.2523 28.3333 73.1542 28.2407C73.0561 28.1481 73.0071 28.0282 73.0071 27.892Z" fill="#46466E"/>
<path d="M2.49057 7.62939e-05H0V17.9875H2.49057V11.3144C2.49057 10.1854 2.77137 9.29485 3.33296 8.66767C3.89456 8.04049 4.66371 7.71436 5.61598 7.71436C6.43396 7.71436 7.11765 8.01541 7.66704 8.59241C8.21643 9.18196 8.49722 9.92203 8.49722 10.8126V18.0001H11V10.8126C11 9.15687 10.5483 7.85234 9.64484 6.87394C8.7414 5.89555 7.55716 5.40635 6.11654 5.40635C5.70144 5.40635 5.28635 5.45652 4.88346 5.56941C4.46837 5.68231 4.13873 5.80774 3.87014 5.94572C3.60155 6.0837 3.34517 6.23422 3.11321 6.40983C2.88124 6.58544 2.72253 6.71088 2.64928 6.78614C2.57603 6.8614 2.51498 6.91157 2.49057 6.9492V7.62939e-05Z" fill="#F0145A"/>
<path d="M16.5675 0H14V17.9725H16.5675V0Z" fill="#323264"/>
<path d="M31.711 12.7089L31.8394 11.4252C31.8394 9.70496 31.2745 8.26716 30.1192 7.11178C28.9638 5.95641 27.526 5.39156 25.8058 5.39156C24.0855 5.39156 22.5964 6.00776 21.364 7.24016C20.1316 8.47256 19.5154 9.93604 19.5154 11.6819C19.5154 13.4792 20.1573 15.0197 21.4153 16.3034C22.6734 17.5872 24.1882 18.2291 25.9341 18.2291C26.6017 18.2291 27.2179 18.1264 27.8341 17.9466C28.4503 17.7412 28.9638 17.5358 29.3232 17.3304C29.7084 17.0994 30.0935 16.8426 30.4273 16.5602C30.761 16.2778 30.9921 16.0724 31.0948 15.944C31.1975 15.8156 31.2745 15.7386 31.3259 15.6616L29.657 13.9927L29.2719 14.4805C29.0151 14.7886 28.5787 15.0967 27.9625 15.4305C27.3206 15.7643 26.653 15.9183 25.9341 15.9183C24.9328 15.9183 24.0855 15.6102 23.3666 14.9683C22.6477 14.3265 22.2113 13.5819 22.0829 12.7089H31.711ZM25.8058 7.57393C26.7557 7.57393 27.526 7.85636 28.1679 8.39553C28.7841 8.96038 29.1692 9.65361 29.3232 10.5266H22.1856C22.4167 9.65361 22.8275 8.96038 23.4693 8.39553C24.0855 7.85636 24.8815 7.57393 25.8058 7.57393Z" fill="#323264"/>
<path d="M43.6855 17.2277C43.6855 18.3574 43.3518 19.2817 42.6585 20.0006C41.991 20.6939 41.1437 21.0533 40.091 21.0533C39.6289 21.0533 39.1667 20.9763 38.7303 20.8479C38.2938 20.7195 37.96 20.5655 37.6776 20.3858C37.3952 20.206 37.1384 20.0263 36.8817 19.7952C36.6506 19.5642 36.4965 19.4101 36.4195 19.3331C36.3425 19.2561 36.2911 19.179 36.2398 19.1277L34.5709 20.7966L34.7763 21.0533C34.9047 21.233 35.1358 21.4641 35.4439 21.7209C35.752 21.9519 36.1114 22.2087 36.5222 22.4654C36.933 22.6965 37.4465 22.9019 38.0884 23.0816C38.7303 23.2614 39.3978 23.3641 40.091 23.3641C41.8369 23.3641 43.2747 22.7735 44.4815 21.5925C45.6625 20.3858 46.253 18.948 46.253 17.2021V5.64831H43.6855V6.93206L43.2491 6.54693C42.9666 6.29018 42.5302 6.03343 41.914 5.77668C41.2978 5.51993 40.6302 5.39156 39.9627 5.39156C38.3965 5.39156 37.0614 5.98208 35.906 7.18881C34.7506 8.39553 34.1858 9.83333 34.1858 11.5536C34.1858 13.2738 34.7506 14.7116 35.906 15.9183C37.0614 17.125 38.3965 17.7156 39.9627 17.7156C40.3991 17.7156 40.8099 17.6642 41.2464 17.5615C41.6572 17.4331 41.991 17.3048 42.2734 17.1764C42.5558 17.048 42.8126 16.894 43.0437 16.7142C43.2747 16.5345 43.4545 16.4061 43.5058 16.3548L43.6855 16.1751V17.2277ZM36.7533 11.5536C36.7533 10.4752 37.0871 9.57658 37.7803 8.83201C38.4735 8.08743 39.2951 7.70231 40.2194 7.70231C41.1437 7.70231 41.9653 8.08743 42.6585 8.83201C43.3261 9.57658 43.6855 10.4752 43.6855 11.5536C43.6855 12.6319 43.3261 13.5305 42.6585 14.2751C41.9653 15.0197 41.1437 15.4048 40.2194 15.4048C39.2951 15.4048 38.4735 15.0197 37.7803 14.2751C37.0871 13.5305 36.7533 12.6319 36.7533 11.5536Z" fill="#323264"/>
<path d="M59.6544 17.9723V10.0131C59.6544 8.70363 59.1666 7.59961 58.2166 6.72666C57.2666 5.82803 56.0342 5.39156 54.5194 5.39156C53.9289 5.39156 53.3383 5.46858 52.7735 5.62263C52.2086 5.80236 51.7465 5.98208 51.4127 6.18748C51.0789 6.39288 50.7452 6.62396 50.4371 6.90638C50.129 7.16313 49.9492 7.34286 49.8465 7.44556C49.7695 7.54826 49.6925 7.62528 49.6411 7.70231L51.31 9.37118L51.6438 8.93471C51.8492 8.65228 52.2086 8.39553 52.7478 8.11311C53.287 7.83068 53.8775 7.70231 54.5194 7.70231C55.264 7.70231 55.8802 7.93338 56.368 8.36986C56.8558 8.80633 57.0869 9.37119 57.0869 10.0131L52.5938 10.7833C51.4897 10.963 50.5911 11.3995 49.9749 12.0927C49.333 12.786 48.9993 13.6332 48.9993 14.6346C48.9993 15.5845 49.4101 16.4061 50.2317 17.125C51.0789 17.8696 52.1059 18.2291 53.364 18.2291C53.8005 18.2291 54.2113 18.1777 54.6221 18.0493C55.0586 17.9466 55.3923 17.8183 55.6748 17.6899C55.9572 17.5615 56.214 17.4075 56.445 17.2277C56.6761 17.048 56.8302 16.9196 56.9329 16.8683C57.0099 16.7913 57.0612 16.7142 57.0869 16.6886V17.9723H59.6544ZM53.7491 15.9183C53.0816 15.9183 52.5424 15.7643 52.1573 15.4562C51.7465 15.1481 51.5668 14.7886 51.5668 14.3778C51.5668 13.9413 51.6951 13.5562 51.9776 13.2738C52.26 12.9914 52.6451 12.786 53.1073 12.7089L57.0869 12.0671V12.3238C57.0869 13.4792 56.8045 14.3521 56.214 14.994C55.6234 15.6102 54.8018 15.9183 53.7491 15.9183Z" fill="#323264"/>
<path d="M65.3202 -3.8147e-06H62.7527V17.9725H65.3202V-3.8147e-06Z" fill="#323264"/>
<path d="M76.9944 7.06043L76.8403 6.88071C76.7376 6.77801 76.5836 6.64963 76.3525 6.46991C76.1214 6.29018 75.8647 6.13613 75.5822 5.95641C75.2998 5.80236 74.9147 5.67398 74.4525 5.54561C73.9904 5.44291 73.5026 5.39156 73.0147 5.39156C71.7567 5.39156 70.7297 5.75101 69.9081 6.46991C69.0608 7.21448 68.65 8.03608 68.65 8.98606C68.65 9.67929 68.804 10.2441 69.1121 10.7576C69.4202 11.2455 69.8054 11.6049 70.2932 11.8103C70.7553 12.0414 71.2688 12.2725 71.808 12.4522C72.3472 12.6319 72.835 12.786 73.3228 12.9143C73.785 13.0684 74.1701 13.2481 74.4782 13.4792C74.7863 13.7103 74.9404 14.0184 74.9404 14.3778C74.9404 14.84 74.7606 15.2251 74.4269 15.5075C74.0931 15.7643 73.5796 15.9183 72.8864 15.9183C72.3215 15.9183 71.7567 15.7643 71.2175 15.5075C70.6783 15.2251 70.3445 14.994 70.1648 14.8143C70.0108 14.6346 69.8824 14.4805 69.8054 14.3778L68.1365 16.0467L68.3162 16.2778C68.4446 16.4318 68.6243 16.6115 68.8811 16.8169C69.1635 17.048 69.4716 17.2534 69.8054 17.4588C70.1648 17.6642 70.627 17.8439 71.1661 17.998C71.7053 18.152 72.2958 18.2291 72.8864 18.2291C74.2471 18.2291 75.3768 17.8439 76.2241 17.0994C77.0714 16.3548 77.5079 15.4305 77.5079 14.3778C77.5079 13.6846 77.3538 13.0941 77.0457 12.6319C76.7376 12.1441 76.3525 11.7846 75.8647 11.5536C75.4025 11.2968 74.889 11.0914 74.3498 10.9117C73.8107 10.732 73.3228 10.5522 72.835 10.4495C72.3729 10.3212 71.9877 10.1158 71.6796 9.88469C71.3715 9.65361 71.2175 9.34551 71.2175 8.98606C71.2175 8.65228 71.3715 8.34418 71.7053 8.08743C72.0134 7.83068 72.4499 7.70231 73.0147 7.70231C73.4255 7.70231 73.8363 7.80501 74.2215 7.98473C74.6323 8.16446 74.9147 8.31851 75.0431 8.44688C75.1714 8.57526 75.2741 8.67796 75.3255 8.72931L76.9944 7.06043Z" fill="#323264"/>
<path d="M98.7393 13.4448C98.7393 14.4282 98.4053 15.2632 97.7559 15.9404C97.1064 16.6177 96.3179 16.9517 95.4087 16.9517C94.4995 16.9517 93.7109 16.6177 93.0615 15.9312C92.4121 15.2446 92.0874 14.4189 92.0874 13.4355C92.0874 12.4521 92.4121 11.6265 93.0615 10.9492C93.7109 10.272 94.4995 9.92871 95.4087 9.92871C96.3179 9.92871 97.1064 10.272 97.7559 10.9492C98.4053 11.6265 98.7393 12.4614 98.7393 13.4448ZM90.7607 13.4448C90.7607 14.7808 91.2061 15.9033 92.1152 16.8218C93.0244 17.731 94.1191 18.1948 95.418 18.1948C96.7075 18.1948 97.8022 17.731 98.7021 16.8218C99.6113 15.9033 100.057 14.7808 100.057 13.4448C100.057 12.1089 99.6113 10.9863 98.7021 10.0679C97.8022 9.14941 96.7075 8.68555 95.418 8.68555C94.1191 8.68555 93.0244 9.14941 92.1152 10.0679C91.2061 10.9863 90.7607 12.1089 90.7607 13.4448ZM112.618 18H113.954V8.88037H112.618V12.7769H107.395V8.88037H106.068V18H107.395V14.0107H112.618V18ZM118.992 12.7769C118.129 12.9253 117.47 13.2314 117.016 13.6953C116.552 14.1592 116.329 14.7715 116.329 15.5322C116.329 16.228 116.635 16.8403 117.257 17.3784C117.878 17.9165 118.648 18.1855 119.558 18.1855C119.919 18.1855 120.272 18.1392 120.615 18.0371C120.958 17.9443 121.237 17.833 121.45 17.7031C121.654 17.5732 121.849 17.4341 122.035 17.2671C122.22 17.1001 122.332 16.9888 122.387 16.9238C122.443 16.8589 122.48 16.8032 122.508 16.7661V18H123.834V12.2017C123.834 11.209 123.491 10.374 122.805 9.69678C122.118 9.02881 121.265 8.68555 120.226 8.68555C119.817 8.68555 119.409 8.75049 119.02 8.87109C118.63 8.9917 118.314 9.13086 118.073 9.2793C117.832 9.43701 117.6 9.61328 117.377 9.80811C117.155 10.0029 117.016 10.1421 116.951 10.2163C116.886 10.2905 116.839 10.3555 116.802 10.4019L117.656 11.2554L117.943 10.9307C118.129 10.708 118.435 10.4854 118.862 10.2627C119.289 10.04 119.743 9.92871 120.226 9.92871C120.894 9.92871 121.441 10.1421 121.868 10.5596C122.294 10.9863 122.508 11.5337 122.508 12.2017L118.992 12.7769ZM119.558 16.9517C118.964 16.9517 118.491 16.8218 118.157 16.5527C117.823 16.2837 117.656 15.9404 117.656 15.5322C117.656 14.6787 118.231 14.1406 119.372 13.918L122.508 13.3428V13.918C122.508 14.8179 122.229 15.5508 121.673 16.1074C121.116 16.6733 120.411 16.9517 119.558 16.9517ZM126.2 13.4355C126.2 14.7529 126.646 15.8755 127.545 16.8032C128.436 17.731 129.512 18.1855 130.755 18.1855C131.201 18.1855 131.637 18.1206 132.063 17.9814C132.49 17.8423 132.843 17.6938 133.112 17.5269C133.39 17.3599 133.65 17.1743 133.891 16.9609C134.142 16.7476 134.309 16.5991 134.383 16.5063C134.457 16.4136 134.513 16.3486 134.55 16.293L133.604 15.4395L133.297 15.8105C133.084 16.0703 132.741 16.3208 132.268 16.5713C131.785 16.8311 131.284 16.9517 130.755 16.9517C129.883 16.9517 129.123 16.6177 128.482 15.9404C127.842 15.2632 127.527 14.4282 127.527 13.4448C127.527 12.4614 127.842 11.6265 128.482 10.9492C129.123 10.272 129.883 9.92871 130.755 9.92871C131.099 9.92871 131.433 9.98438 131.748 10.0864C132.063 10.1978 132.314 10.3184 132.518 10.4482C132.713 10.5781 132.898 10.7358 133.065 10.9121C133.232 11.0977 133.344 11.2183 133.39 11.2832C133.446 11.3574 133.483 11.4038 133.501 11.4409L134.457 10.4946L134.058 10.0586C133.798 9.76172 133.353 9.45557 132.741 9.14941C132.128 8.84326 131.46 8.68555 130.746 8.68555C129.512 8.68555 128.445 9.14941 127.545 10.0771C126.646 11.0049 126.2 12.1182 126.2 13.4355Z" fill="#323264"/>
<path fill-rule="evenodd" clip-rule="evenodd" d="M151.998 13.3508H145.888L148.58 5.18491L151.626 5.20286L149.858 10.5882L152.894 10.59L151.998 13.3508Z" fill="url(#paint0_linear)"/>
<path fill-rule="evenodd" clip-rule="evenodd" d="M139.524 23.9512H136.5C136.5 23.9512 142.008 7.04374 143.295 3.0969C143.896 1.25027 145.622 0 147.568 0H152.975C154.605 0 155.966 0.686832 156.812 1.84746C157.657 3.00814 157.897 4.49328 157.404 6.00835C156.911 7.52343 156.444 8.95362 156.017 10.264C155.441 12.0334 153.844 13.2526 151.998 13.3517C151.998 13.3517 151.989 13.3486 154.575 5.40888C154.804 4.70822 154.72 4.0224 154.362 3.53053C154.003 3.03872 153.399 2.74765 152.599 2.74765H147.96C147.049 2.74765 146.242 3.33271 145.96 4.19687L139.524 23.9512Z" fill="#F0145A"/>
<path fill-rule="evenodd" clip-rule="evenodd" d="M87.4489 0H90.5L82.5511 24H79.5L87.4489 0Z" fill="#F0145A"/>
</g>
<defs>
<linearGradient id="paint0_linear" x1="145.888" y1="11.7867" x2="152.677" y2="15.3447" gradientUnits="userSpaceOnUse">
<stop stop-color="#F0145A"/>
<stop offset="1" stop-color="#693264"/>
</linearGradient>
<clipPath id="clip0">
<rect width="183" height="31" fill="white"/>
</clipPath>
</defs>
</svg>
