<svg width="132" height="28" viewBox="0 0 132 28" fill="none" xmlns="http://www.w3.org/2000/svg">
<path d="M1.66736 26.6667L4.10654 23.3906L1.81602 20.8893H2.51529L5.80791 24.5693V20.8893H6.35851V24.5693L9.65112 20.8893H10.3504L8.04888 23.3906L10.499 26.6667H9.82179L7.70199 23.7891L6.35851 25.25V26.6667H5.80791V25.25L4.46443 23.778L2.3446 26.6667H1.66736ZM11.837 26.6667V20.8893H12.3931V25.9307L16.2914 20.8893H16.8475V26.6667H16.2914V21.6253L12.3931 26.6667H11.837ZM17.9377 26.6667L18.0423 26.1575C18.2222 26.2092 18.3672 26.235 18.4773 26.235C18.6021 26.235 18.7067 26.2258 18.7912 26.2073C18.8792 26.1852 18.9728 26.1354 19.0719 26.0579C19.1711 25.9805 19.2537 25.8717 19.3198 25.7315C19.3858 25.5913 19.45 25.3976 19.5125 25.1504C19.5785 24.9032 19.6299 24.6044 19.6666 24.2539C19.707 23.8997 19.74 23.4663 19.7657 22.9535C19.7914 22.4407 19.8061 21.8541 19.8097 21.1937V20.8893H23.7246V26.6667H23.1685V21.3874H20.3383V21.5423C20.3383 22.2175 20.3218 22.817 20.2888 23.3408C20.2594 23.861 20.2191 24.3037 20.1677 24.6689C20.12 25.0342 20.0539 25.3459 19.9695 25.6041C19.885 25.8587 19.7987 26.0616 19.7106 26.2129C19.6226 26.3605 19.5125 26.4767 19.3803 26.5615C19.2482 26.6427 19.1215 26.6943 19.0004 26.7165C18.8829 26.7423 18.7398 26.7552 18.5709 26.7552C18.3617 26.7552 18.1506 26.7257 17.9377 26.6667ZM25.4314 23.778C25.4314 23.3759 25.5067 22.9903 25.6572 22.6214C25.8077 22.2525 26.0114 21.9315 26.2684 21.6585C26.5253 21.3818 26.8392 21.1623 27.2099 21C27.5806 20.834 27.9752 20.751 28.3937 20.751C28.948 20.751 29.4509 20.8893 29.9024 21.166C30.3575 21.439 30.7099 21.8079 30.9595 22.2728C31.2128 22.7339 31.3395 23.2357 31.3395 23.778C31.3395 24.3166 31.2128 24.8165 30.9595 25.2777C30.7063 25.7388 30.3502 26.1096 29.8914 26.39C29.4362 26.6667 28.9296 26.805 28.3717 26.805C27.9569 26.805 27.566 26.7239 27.1989 26.5615C26.8318 26.3992 26.5198 26.1815 26.2629 25.9085C26.0059 25.6355 25.8022 25.3145 25.6517 24.9457C25.5049 24.573 25.4314 24.1838 25.4314 23.778ZM26.0261 23.778C26.0261 24.4753 26.2537 25.0674 26.7088 25.5543C27.1677 26.0377 27.7293 26.2793 28.3937 26.2793C28.8121 26.2793 29.2013 26.1686 29.561 25.9473C29.9207 25.7222 30.207 25.4179 30.42 25.0342C30.6328 24.6505 30.7393 24.2318 30.7393 23.778C30.7393 23.0844 30.5081 22.4941 30.0455 22.0072C29.583 21.5165 29.0251 21.2712 28.3717 21.2712C27.9459 21.2712 27.5531 21.3837 27.1934 21.6087C26.8337 21.8301 26.5492 22.1344 26.34 22.5218C26.1307 22.9055 26.0261 23.3242 26.0261 23.778ZM33.0353 26.6667V20.8893H33.5914V25.9307L37.4897 20.8893H38.0458V26.6667H37.4897V21.6253L33.5914 26.6667H33.0353ZM34.0209 18.6426L34.4834 18.543C34.6302 19.0927 34.9826 19.3675 35.5406 19.3675C36.1022 19.3675 36.4564 19.0927 36.6032 18.543L37.0657 18.6426C36.996 19.0189 36.8216 19.3306 36.5426 19.5778C36.2636 19.825 35.9297 19.9486 35.5406 19.9486C35.1515 19.9486 34.8174 19.825 34.5384 19.5778C34.2632 19.3306 34.0906 19.0189 34.0209 18.6426ZM43.5188 26.6667V20.8893H44.0749V24.5915L47.6373 20.8893H48.3696L45.8534 23.4459L48.4467 26.6667H47.7475L45.4735 23.8444L44.0749 25.2611V26.6667H43.5188ZM49.3937 23.778C49.3937 23.3759 49.469 22.9903 49.6195 22.6214C49.77 22.2525 49.9737 21.9315 50.2307 21.6585C50.4876 21.3818 50.8015 21.1623 51.1722 21C51.5429 20.834 51.9376 20.751 52.356 20.751C52.9103 20.751 53.4132 20.8893 53.8647 21.166C54.3199 21.439 54.6722 21.8079 54.9218 22.2728C55.1751 22.7339 55.3018 23.2357 55.3018 23.778C55.3018 24.3166 55.1751 24.8165 54.9218 25.2777C54.6686 25.7388 54.3125 26.1096 53.8537 26.39C53.3985 26.6667 52.8919 26.805 52.334 26.805C51.9192 26.805 51.5283 26.7239 51.1612 26.5615C50.7941 26.3992 50.4821 26.1815 50.2252 25.9085C49.9682 25.6355 49.7645 25.3145 49.614 24.9457C49.4672 24.573 49.3937 24.1838 49.3937 23.778ZM49.9884 23.778C49.9884 24.4753 50.216 25.0674 50.6712 25.5543C51.13 26.0377 51.6916 26.2793 52.356 26.2793C52.7745 26.2793 53.1636 26.1686 53.5233 25.9473C53.883 25.7222 54.1693 25.4179 54.3823 25.0342C54.5951 24.6505 54.7016 24.2318 54.7016 23.778C54.7016 23.0844 54.4704 22.4941 54.0078 22.0072C53.5453 21.5165 52.9874 21.2712 52.334 21.2712C51.9082 21.2712 51.5154 21.3837 51.1557 21.6087C50.796 21.8301 50.5115 22.1344 50.3023 22.5218C50.093 22.9055 49.9884 23.3242 49.9884 23.778ZM56.9976 26.6667V20.8893H57.4987L59.8442 24.2097L62.1898 20.8893H62.6853V26.6667H62.1293V21.8522L59.8167 25.0453L57.5317 21.8522V26.6667H56.9976ZM64.7831 26.6667V20.8893H69.568V26.6667H69.0121V21.3874H65.3393V26.6667H64.7831ZM70.6638 26.6667L70.7679 26.1575C70.9483 26.2092 71.0929 26.235 71.2031 26.235C71.3278 26.235 71.4326 26.2258 71.5168 26.2073C71.605 26.1852 71.6986 26.1354 71.798 26.0579C71.8969 25.9805 71.9798 25.8717 72.0455 25.7315C72.1118 25.5913 72.1761 25.3976 72.2385 25.1504C72.3042 24.9032 72.3559 24.6044 72.3924 24.2539C72.4328 23.8997 72.466 23.4663 72.4919 22.9535C72.5171 22.4407 72.5317 21.8541 72.5357 21.1937V20.8893H76.4506V26.6667H75.8947V21.3874H73.0643V21.5423C73.0643 22.2175 73.0477 22.817 73.0146 23.3408C72.9854 23.861 72.9449 24.3037 72.8939 24.6689C72.8461 25.0342 72.7798 25.3459 72.6955 25.6041C72.6106 25.8587 72.5244 26.0616 72.4368 26.2129C72.3486 26.3605 72.2385 26.4767 72.1065 26.5615C71.9738 26.6427 71.8471 26.6943 71.7264 26.7165C71.609 26.7423 71.4657 26.7552 71.2966 26.7552C71.0876 26.7552 70.8767 26.7257 70.6638 26.6667ZM78.1573 23.7669C78.1573 23.3537 78.2269 22.9627 78.3669 22.5938C78.5062 22.2211 78.6952 21.9002 78.934 21.6309C79.1721 21.3615 79.4607 21.1476 79.7983 20.9889C80.1393 20.8303 80.5008 20.751 80.8828 20.751C81.4075 20.751 81.8718 20.8856 82.2758 21.1549C82.6831 21.4206 82.9935 21.7821 83.2064 22.2396C83.4194 22.6971 83.5255 23.2099 83.5255 23.778C83.5255 23.8702 83.5222 23.9459 83.5149 24.0049H78.741C78.7887 24.6985 79.0289 25.2519 79.462 25.6651C79.8991 26.0745 80.4112 26.2793 80.9983 26.2793C81.7544 26.2793 82.4118 25.9786 82.9696 25.3773L83.355 25.7149C83.032 26.0653 82.6831 26.3347 82.309 26.5228C81.9382 26.7109 81.4938 26.805 80.9764 26.805C80.6023 26.805 80.2421 26.7312 79.8971 26.5837C79.5562 26.4361 79.257 26.2332 78.9997 25.9749C78.743 25.713 78.5373 25.3921 78.3828 25.0121C78.2329 24.6283 78.1573 24.2133 78.1573 23.7669ZM78.741 23.5069H82.9258C82.9073 23.208 82.8502 22.9276 82.7547 22.6657C82.6592 22.4001 82.5292 22.1621 82.364 21.9518C82.1989 21.7379 81.9859 21.57 81.7253 21.4482C81.4685 21.3228 81.18 21.2601 80.8609 21.2601C80.2958 21.2601 79.8129 21.4741 79.4129 21.902C79.0163 22.33 78.7921 22.8649 78.741 23.5069ZM85.1334 26.6667V20.8893H85.6899V24.5915L89.2519 20.8893H89.9842L87.4682 23.4459L90.0611 26.6667H89.362L87.0882 23.8444L85.6899 25.2611V26.6667H85.1334ZM91.0084 23.778C91.0084 23.232 91.137 22.7284 91.3938 22.2673C91.6511 21.8024 92.0033 21.4335 92.4511 21.1605C92.9028 20.8875 93.3983 20.751 93.9376 20.751C94.833 20.751 95.5965 21.1107 96.228 21.8301L95.8426 22.223C95.5494 21.9205 95.2536 21.6862 94.9564 21.5202C94.6626 21.3542 94.3196 21.2712 93.927 21.2712C93.5084 21.2712 93.121 21.3837 92.7648 21.6087C92.4086 21.8301 92.1261 22.1344 91.9171 22.5218C91.7075 22.9055 91.6034 23.3242 91.6034 23.778C91.6034 24.4753 91.8322 25.0674 92.2912 25.5543C92.7502 26.0377 93.3101 26.2793 93.9707 26.2793C94.6573 26.2793 95.2941 25.9509 95.8811 25.2943L96.2831 25.6595C95.964 26.0247 95.6171 26.3069 95.2423 26.5062C94.8722 26.7054 94.437 26.805 93.9376 26.805C93.3943 26.805 92.8968 26.6703 92.4458 26.4011C91.998 26.1281 91.6451 25.7609 91.3884 25.2998C91.1351 24.8349 91.0084 24.3277 91.0084 23.778Z" fill="white"/>
<path d="M12.2701 14.4239C11.6864 14.8541 10.9762 15.1767 10.1395 15.3919C9.32232 15.6265 8.47593 15.7439 7.60035 15.7439C6.43289 15.7439 5.44057 15.5581 4.62336 15.1865C3.82562 14.815 3.17379 14.2967 2.6679 13.6319C2.16202 12.9474 1.79233 12.1261 1.55884 11.1679C1.34481 10.2097 1.23779 9.15366 1.23779 7.99986C1.23779 5.51633 1.79233 3.60966 2.90139 2.27986C4.01046 0.930526 5.62541 0.255859 7.74628 0.255859C8.81641 0.255859 9.67255 0.343859 10.3146 0.519859C10.9762 0.695859 11.5696 0.920725 12.095 1.19453L11.1902 4.30386C10.7427 4.08873 10.2951 3.92253 9.84767 3.80519C9.41956 3.68786 8.9234 3.62919 8.35919 3.62919C7.30849 3.62919 6.51072 3.98119 5.96591 4.68519C5.42111 5.36966 5.14871 6.47453 5.14871 7.99986C5.14871 8.62566 5.21681 9.20253 5.35301 9.73053C5.48921 10.2585 5.69352 10.7181 5.96591 11.1092C6.23832 11.5003 6.58855 11.8132 7.01663 12.0479C7.46411 12.263 7.97977 12.3705 8.56349 12.3705C9.20558 12.3705 9.75036 12.2923 10.1979 12.1359C10.6454 11.9599 11.0443 11.7545 11.3945 11.5199L12.2701 14.4239ZM23.3495 8.64519L23.4955 6.56253H23.4079L22.1529 8.70386L16.9578 15.3332H14.5646V0.666526H18.3587V7.64786L18.1836 9.64253H18.3004L19.497 7.55986L24.7505 0.666526H27.1437V15.3332H23.3495V8.64519ZM40.9756 4.03986H36.8604V15.3332H32.9495V4.03986H28.8342V0.666526H40.9756V4.03986ZM51.4524 8.64519L51.5983 6.56253H51.5108L50.2558 8.70386L45.0607 15.3332H42.6674V0.666526H46.4616V7.64786L46.2865 9.64253H46.4032L47.5999 7.55986L52.8533 0.666526H55.2466V15.3332H51.4524V8.64519ZM81.7412 4.03986H77.1298V15.3332H73.3356V0.666526H85.5353V15.3332H81.7412V4.03986ZM88.7816 1.51719C89.5597 1.16519 90.4837 0.891393 91.5543 0.695859C92.6242 0.480726 93.7432 0.373192 94.9107 0.373192C95.9222 0.373192 96.7686 0.500326 97.4498 0.754526C98.1304 0.989192 98.6657 1.33139 99.0551 1.78119C99.4637 2.23099 99.7456 2.76872 99.9014 3.39453C100.077 4.02032 100.164 4.72433 100.164 5.50653C100.164 6.36699 100.135 7.23719 100.077 8.11719C100.018 8.97766 99.9791 9.82833 99.9598 10.6692C99.9598 11.5101 99.989 12.3314 100.047 13.1332C100.106 13.9154 100.252 14.6585 100.485 15.3625H97.3915L96.7786 13.3385H96.6326C96.2433 13.9447 95.6987 14.4727 94.9982 14.9225C94.317 15.3527 93.4315 15.5679 92.3423 15.5679C91.6611 15.5679 91.0482 15.4701 90.5036 15.2745C89.9583 15.0594 89.4914 14.7661 89.1027 14.3945C88.7133 14.0034 88.4115 13.5537 88.1979 13.0452C87.9836 12.5172 87.8768 11.9305 87.8768 11.2852C87.8768 10.3857 88.0712 9.63273 88.4606 9.02653C88.8692 8.40073 89.4429 7.90206 90.1825 7.53053C90.9414 7.13939 91.8362 6.87539 92.8676 6.73853C93.9183 6.58206 95.0858 6.53319 96.3699 6.59186C96.5059 5.49673 96.4283 4.71453 96.1365 4.24519C95.8446 3.75633 95.1926 3.51186 94.181 3.51186C93.4222 3.51186 92.6143 3.59006 91.7586 3.74653C90.9215 3.90299 90.231 4.10833 89.6864 4.36253L88.7816 1.51719ZM93.5973 12.4292C94.3561 12.4292 94.9591 12.263 95.4068 11.9305C95.8539 11.5785 96.1849 11.207 96.3991 10.8159V8.90919C95.7955 8.85052 95.2118 8.84073 94.648 8.87986C94.1027 8.91899 93.6165 9.00699 93.1887 9.14386C92.7602 9.28073 92.4199 9.47633 92.1672 9.73053C91.9138 9.98473 91.7878 10.3074 91.7878 10.6985C91.7878 11.2461 91.943 11.6763 92.2547 11.9892C92.5851 12.2825 93.0328 12.4292 93.5973 12.4292ZM103.348 0.666526H106.121L106.558 2.42653H106.675C107.181 1.68339 107.774 1.13586 108.456 0.783859C109.156 0.431859 110.002 0.255859 110.995 0.255859C112.824 0.255859 114.195 0.842526 115.11 2.01586C116.025 3.16966 116.482 5.03719 116.482 7.61853C116.482 8.87006 116.336 10.0043 116.044 11.0212C115.752 12.0185 115.314 12.8692 114.731 13.5732C114.166 14.2772 113.466 14.815 112.629 15.1865C111.812 15.5581 110.868 15.7439 109.798 15.7439C109.195 15.7439 108.699 15.695 108.31 15.5972C107.92 15.519 107.532 15.3821 107.142 15.1865V21.1999H103.348V0.666526ZM109.857 3.48253C109.117 3.48253 108.533 3.66833 108.105 4.03986C107.697 4.41139 107.376 4.96873 107.142 5.71186V11.8132C107.415 12.0283 107.707 12.2043 108.018 12.3412C108.349 12.4585 108.777 12.5172 109.302 12.5172C110.392 12.5172 111.209 12.1359 111.754 11.3732C112.298 10.591 112.571 9.31006 112.571 7.53053C112.571 6.23986 112.357 5.24253 111.929 4.53853C111.501 3.83453 110.81 3.48253 109.857 3.48253ZM123.925 9.26119H122.904V15.3332H119.11V0.666526H122.904V6.91453L123.809 6.50386L127.223 0.666526H131.28L127.749 6.23986L126.26 7.35453L127.895 8.49853L131.835 15.3332H127.486L123.925 9.26119Z" fill="white"/>
<path d="M64.3417 10.6668C65.8071 10.6668 66.995 9.47292 66.995 8.00016C66.995 6.5274 65.8071 5.3335 64.3417 5.3335C62.8764 5.3335 61.6885 6.5274 61.6885 8.00016C61.6885 9.47292 62.8764 10.6668 64.3417 10.6668Z" fill="#F1C650"/>
</svg>
