<svg width="64" height="64" viewBox="0 0 64 64" fill="none" xmlns="http://www.w3.org/2000/svg">
<rect width="64" height="64" rx="18" fill="white"/>
<path d="M38.8789 48.5H25.8164V52.625H38.8789V48.5Z" fill="black"/>
<path d="M38.8789 48.5H25.8164V52.625H38.8789V48.5Z" fill="url(#paint0_linear)"/>
<path d="M20.4312 11.6859L11.1946 20.9225L13.6253 23.3532L22.8619 14.1166L20.4312 11.6859Z" fill="black"/>
<path d="M20.4312 11.6859L11.1946 20.9225L13.6253 23.3532L22.8619 14.1166L20.4312 11.6859Z" fill="url(#paint1_linear)"/>
<path d="M43.7649 11.5962L41.3342 14.0269L50.5708 23.2635L53.0015 20.8328L43.7649 11.5962Z" fill="black"/>
<path d="M43.7649 11.5962L41.3342 14.0269L50.5708 23.2635L53.0015 20.8328L43.7649 11.5962Z" fill="url(#paint2_linear)"/>
<path d="M40.6325 16.6733L38.7822 16.5949C38.2487 16.5196 37.705 16.5693 37.1939 16.7401C36.6829 16.9109 36.2186 17.1982 35.8376 17.5792L32.0533 21.3635L28.0977 17.4079C27.7543 17.0724 27.3258 16.8368 26.8584 16.7267C26.3911 16.6166 25.9025 16.6361 25.4454 16.783C25.0142 16.9142 24.5554 16.9257 24.1182 16.8163C23.6809 16.7069 23.2816 16.4808 22.9629 16.1621L22.3758 15.5751L15.0837 22.8671L16.2717 24.0551L16.1933 25.9053C16.118 26.4388 16.1677 26.9826 16.3385 27.4936C16.5093 28.0046 16.7966 28.469 17.1775 28.85L23.7861 35.4585C23.8744 34.591 24.2901 33.7898 24.9484 33.218L22.8894 31.159L23.3755 30.6729L25.5262 32.8235C25.831 32.65 26.1609 32.5246 26.5041 32.4519V29.9123L25.3201 28.7283L25.8062 28.2422L26.5041 28.94V25.262C26.4964 24.6541 26.7122 24.0645 27.1104 23.6051C27.5087 23.1457 28.0617 22.8485 28.6646 22.7698C28.892 22.7478 29.1213 22.7581 29.3458 22.8006L28.5005 21.9553L28.9866 21.4692L30.2215 22.7041C30.4402 22.2803 30.7785 21.9301 31.1945 21.6969C31.6104 21.4637 32.0857 21.3577 32.5613 21.3921C33.1353 21.4592 33.6677 21.7249 34.0664 22.1433C34.465 22.5617 34.7047 23.1063 34.744 23.6829C35.1347 23.4971 35.5677 23.4184 35.9988 23.4546C36.6114 23.528 37.175 23.8262 37.5802 24.2915C37.9853 24.7569 38.2032 25.3561 38.1916 25.973V28.3269C38.8172 28.4575 39.3941 28.76 39.8575 29.2002C40.321 29.6404 40.6525 30.201 40.8151 30.8192L42.7322 28.9021L43.2184 29.3883L40.9391 31.6675C40.9392 31.6769 40.9416 31.6857 40.9416 31.6952V33.9778C41.5592 33.9131 42.1363 33.6394 42.5771 33.2019L47.2797 28.4993C47.6152 28.1559 47.8507 27.7274 47.9608 27.2601C48.0709 26.7927 48.0515 26.3042 47.9045 25.8471C47.7734 25.4158 47.7619 24.9571 47.8713 24.5198C47.9806 24.0825 48.2068 23.6832 48.5255 23.3645L49.1125 22.7774L41.8205 15.4854L40.6325 16.6733Z" fill="black"/>
<path d="M40.6325 16.6733L38.7822 16.5949C38.2487 16.5196 37.705 16.5693 37.1939 16.7401C36.6829 16.9109 36.2186 17.1982 35.8376 17.5792L32.0533 21.3635L28.0977 17.4079C27.7543 17.0724 27.3258 16.8368 26.8584 16.7267C26.3911 16.6166 25.9025 16.6361 25.4454 16.783C25.0142 16.9142 24.5554 16.9257 24.1182 16.8163C23.6809 16.7069 23.2816 16.4808 22.9629 16.1621L22.3758 15.5751L15.0837 22.8671L16.2717 24.0551L16.1933 25.9053C16.118 26.4388 16.1677 26.9826 16.3385 27.4936C16.5093 28.0046 16.7966 28.469 17.1775 28.85L23.7861 35.4585C23.8744 34.591 24.2901 33.7898 24.9484 33.218L22.8894 31.159L23.3755 30.6729L25.5262 32.8235C25.831 32.65 26.1609 32.5246 26.5041 32.4519V29.9123L25.3201 28.7283L25.8062 28.2422L26.5041 28.94V25.262C26.4964 24.6541 26.7122 24.0645 27.1104 23.6051C27.5087 23.1457 28.0617 22.8485 28.6646 22.7698C28.892 22.7478 29.1213 22.7581 29.3458 22.8006L28.5005 21.9553L28.9866 21.4692L30.2215 22.7041C30.4402 22.2803 30.7785 21.9301 31.1945 21.6969C31.6104 21.4637 32.0857 21.3577 32.5613 21.3921C33.1353 21.4592 33.6677 21.7249 34.0664 22.1433C34.465 22.5617 34.7047 23.1063 34.744 23.6829C35.1347 23.4971 35.5677 23.4184 35.9988 23.4546C36.6114 23.528 37.175 23.8262 37.5802 24.2915C37.9853 24.7569 38.2032 25.3561 38.1916 25.973V28.3269C38.8172 28.4575 39.3941 28.76 39.8575 29.2002C40.321 29.6404 40.6525 30.201 40.8151 30.8192L42.7322 28.9021L43.2184 29.3883L40.9391 31.6675C40.9392 31.6769 40.9416 31.6857 40.9416 31.6952V33.9778C41.5592 33.9131 42.1363 33.6394 42.5771 33.2019L47.2797 28.4993C47.6152 28.1559 47.8507 27.7274 47.9608 27.2601C48.0709 26.7927 48.0515 26.3042 47.9045 25.8471C47.7734 25.4158 47.7619 24.9571 47.8713 24.5198C47.9806 24.0825 48.2068 23.6832 48.5255 23.3645L49.1125 22.7774L41.8205 15.4854L40.6325 16.6733Z" fill="url(#paint3_linear)"/>
<path d="M30.5429 24.9116C30.4906 24.465 30.2648 24.0568 29.9142 23.7753C29.5635 23.4937 29.1162 23.3614 28.6689 23.4069C28.2349 23.4668 27.8381 23.684 27.5539 24.0174C27.2697 24.3507 27.1179 24.7768 27.1273 25.2148V33.023C26.398 33.023 25.6985 33.3127 25.1828 33.8284C24.6671 34.3441 24.3773 35.0436 24.3773 35.773V42.4235C24.3829 42.9036 24.5193 43.3731 24.772 43.7814C25.0246 44.1897 25.3838 44.5214 25.8109 44.7408C26.2086 44.9529 26.5411 45.2692 26.773 45.6557C27.0048 46.0423 27.1273 46.4845 27.1273 46.9353V47.7655H37.4398V46.0855L38.8036 44.8326C39.2341 44.5086 39.5834 44.0889 39.824 43.6068C40.0646 43.1247 40.1898 42.5932 40.1898 42.0544V31.648C40.1898 30.9186 39.9001 30.2191 39.3844 29.7034C38.8686 29.1877 38.1692 28.898 37.4398 28.898V25.9262C37.4515 25.4812 37.2981 25.0477 37.0092 24.709C36.7203 24.3704 36.3163 24.1507 35.875 24.0922C35.4419 24.054 35.0104 24.1817 34.668 24.4497C34.3256 24.7176 34.0979 25.1057 34.0309 25.5353H34.3461V36.1526H33.6586V25.5353H34.0023V23.8637C34.014 23.4187 33.8606 22.9852 33.5717 22.6465C33.2828 22.3079 32.8788 22.0882 32.4375 22.0297C32.1998 22.0084 31.9602 22.0368 31.734 22.1131C31.5079 22.1895 31.3001 22.3121 31.1239 22.4731C30.9478 22.6342 30.8071 22.8301 30.7108 23.0485C30.6146 23.2669 30.5648 23.503 30.5648 23.7417V24.9116H30.9086V35.5289H30.2211V24.9116H30.5429ZM27.4017 38.9026H26.7142V33.4026H27.4017V38.9026ZM37.0961 29.1114H37.7836V36.2912H37.0961V29.1114Z" fill="black"/>
<path d="M30.5429 24.9116C30.4906 24.465 30.2648 24.0568 29.9142 23.7753C29.5635 23.4937 29.1162 23.3614 28.6689 23.4069C28.2349 23.4668 27.8381 23.684 27.5539 24.0174C27.2697 24.3507 27.1179 24.7768 27.1273 25.2148V33.023C26.398 33.023 25.6985 33.3127 25.1828 33.8284C24.6671 34.3441 24.3773 35.0436 24.3773 35.773V42.4235C24.3829 42.9036 24.5193 43.3731 24.772 43.7814C25.0246 44.1897 25.3838 44.5214 25.8109 44.7408C26.2086 44.9529 26.5411 45.2692 26.773 45.6557C27.0048 46.0423 27.1273 46.4845 27.1273 46.9353V47.7655H37.4398V46.0855L38.8036 44.8326C39.2341 44.5086 39.5834 44.0889 39.824 43.6068C40.0646 43.1247 40.1898 42.5932 40.1898 42.0544V31.648C40.1898 30.9186 39.9001 30.2191 39.3844 29.7034C38.8686 29.1877 38.1692 28.898 37.4398 28.898V25.9262C37.4515 25.4812 37.2981 25.0477 37.0092 24.709C36.7203 24.3704 36.3163 24.1507 35.875 24.0922C35.4419 24.054 35.0104 24.1817 34.668 24.4497C34.3256 24.7176 34.0979 25.1057 34.0309 25.5353H34.3461V36.1526H33.6586V25.5353H34.0023V23.8637C34.014 23.4187 33.8606 22.9852 33.5717 22.6465C33.2828 22.3079 32.8788 22.0882 32.4375 22.0297C32.1998 22.0084 31.9602 22.0368 31.734 22.1131C31.5079 22.1895 31.3001 22.3121 31.1239 22.4731C30.9478 22.6342 30.8071 22.8301 30.7108 23.0485C30.6146 23.2669 30.5648 23.503 30.5648 23.7417V24.9116H30.9086V35.5289H30.2211V24.9116H30.5429ZM27.4017 38.9026H26.7142V33.4026H27.4017V38.9026ZM37.0961 29.1114H37.7836V36.2912H37.0961V29.1114Z" fill="url(#paint4_linear)"/>
<defs>
<linearGradient id="paint0_linear" x1="32.3477" y1="48.5" x2="32.3477" y2="52.625" gradientUnits="userSpaceOnUse">
<stop stop-color="#EF8080"/>
<stop offset="1" stop-color="#F0145A"/>
</linearGradient>
<linearGradient id="paint1_linear" x1="15.8129" y1="16.3042" x2="18.2436" y2="18.7349" gradientUnits="userSpaceOnUse">
<stop stop-color="#EF8080"/>
<stop offset="1" stop-color="#F0145A"/>
</linearGradient>
<linearGradient id="paint2_linear" x1="42.5496" y1="12.8115" x2="51.7862" y2="22.0481" gradientUnits="userSpaceOnUse">
<stop stop-color="#EF8080"/>
<stop offset="1" stop-color="#F0145A"/>
</linearGradient>
<linearGradient id="paint3_linear" x1="32.0981" y1="15.4854" x2="32.0981" y2="35.4585" gradientUnits="userSpaceOnUse">
<stop stop-color="#EF8080"/>
<stop offset="1" stop-color="#F0145A"/>
</linearGradient>
<linearGradient id="paint4_linear" x1="32.2836" y1="22.0228" x2="32.2836" y2="47.7655" gradientUnits="userSpaceOnUse">
<stop stop-color="#EF8080"/>
<stop offset="1" stop-color="#F0145A"/>
</linearGradient>
</defs>
</svg>
