<svg width="64" height="64" viewBox="0 0 64 64" fill="none" xmlns="http://www.w3.org/2000/svg">
<rect width="64" height="64" rx="18" fill="white"/>
<path d="M40.4315 25.0068C41.002 25.5773 41.9262 25.5788 42.4967 25.0068L44.5291 22.9744C45.0988 22.404 45.0972 21.4797 44.5291 20.9085L39.399 15.7799C38.8301 15.2094 37.9058 15.2094 37.3354 15.7799L35.3022 17.8123C34.7333 18.3828 34.7333 19.307 35.3022 19.8759L40.4315 25.0068Z" fill="url(#paint0_linear)"/>
<path d="M28.2853 37.3806C28.855 37.9487 29.7792 37.9487 30.3489 37.3806L32.3821 35.3466C32.9526 34.7777 32.9526 33.8527 32.3821 33.2823L27.252 28.1521C26.6823 27.5832 25.758 27.5817 25.1876 28.1521L23.1552 30.1845C22.5847 30.755 22.5863 31.6792 23.1552 32.2497L28.2853 37.3806Z" fill="url(#paint1_linear)"/>
<path d="M51.5725 37.8683L49.5097 35.8032C48.9377 35.2343 48.0158 35.2343 47.4461 35.8032L46.5413 36.7072L37.8093 27.9735L39.7006 26.0814L34.4536 20.8359L32.5614 22.7281L30.1518 25.1361L28.3018 26.9862L33.548 32.2332L35.4004 30.3839L44.131 39.116L43.3143 39.9335C42.7438 40.5016 42.7422 41.4266 43.3143 41.997L45.3771 44.0606C45.9491 44.6326 46.8725 44.6326 47.4422 44.0606L51.5717 39.9327C52.143 39.3614 52.143 38.4388 51.5725 37.8683Z" fill="url(#paint2_linear)"/>
<path d="M36.3207 44.1412C36.3207 43.2068 35.5632 42.4478 34.6272 42.4478H21.404C20.4689 42.4478 19.7106 43.2068 19.7106 44.1412V46.8898H15.9988V52.6481H39.8127V46.8898H36.3207V44.1412Z" fill="url(#paint3_linear)"/>
<defs>
<linearGradient id="paint0_linear" x1="39.9156" y1="15.3521" x2="39.9156" y2="25.4353" gradientUnits="userSpaceOnUse">
<stop stop-color="#EF8080"/>
<stop offset="1" stop-color="#F0145A"/>
</linearGradient>
<linearGradient id="paint1_linear" x1="27.7689" y1="27.7249" x2="27.7689" y2="37.8067" gradientUnits="userSpaceOnUse">
<stop stop-color="#EF8080"/>
<stop offset="1" stop-color="#F0145A"/>
</linearGradient>
<linearGradient id="paint2_linear" x1="40.151" y1="20.8359" x2="40.151" y2="44.4896" gradientUnits="userSpaceOnUse">
<stop stop-color="#EF8080"/>
<stop offset="1" stop-color="#F0145A"/>
</linearGradient>
<linearGradient id="paint3_linear" x1="27.9057" y1="42.4478" x2="27.9057" y2="52.6481" gradientUnits="userSpaceOnUse">
<stop stop-color="#EF8080"/>
<stop offset="1" stop-color="#F0145A"/>
</linearGradient>
</defs>
</svg>
