<svg width="64" height="64" viewBox="0 0 64 64" fill="none" xmlns="http://www.w3.org/2000/svg">
<rect width="64" height="64" rx="18" fill="white"/>
<path d="M51.6122 35.9375C51.1396 35.7418 50.642 35.6425 50.1333 35.6425C49.0115 35.6425 47.9753 36.1213 47.2557 36.9236L46.417 36.5761L44.0244 35.5851C44.3639 34.4486 44.5471 33.2453 44.5471 31.9999C44.5471 30.7545 44.3638 29.5512 44.0244 28.4147L46.417 27.4236L47.2557 27.0762C47.9753 27.8785 49.0115 28.3572 50.1333 28.3572C50.642 28.3572 51.1396 28.258 51.6122 28.0621C53.5822 27.2461 54.5211 24.9795 53.705 23.0094C53.1042 21.5588 51.7013 20.6214 50.1313 20.6214C49.6226 20.6214 49.125 20.7207 48.6524 20.9165C47.0998 21.5596 46.1885 23.1036 46.271 24.6934L45.4274 25.0428L43.0356 26.0335C41.8736 23.893 40.1071 22.1264 37.9666 20.9645L38.9573 18.5727L39.3063 17.73C39.374 17.7335 39.4418 17.7356 39.5098 17.7356C41.08 17.7356 42.4827 16.7982 43.0837 15.3476C43.8997 13.3776 42.9608 11.1109 40.9908 10.2949C40.518 10.0993 40.0206 10 39.5119 10C37.9417 10 36.539 10.9373 35.938 12.3879C35.2949 13.9405 35.7423 15.6767 36.9248 16.7425L36.5766 17.5832L35.5856 19.9758C34.4491 19.6363 33.2458 19.453 32.0004 19.453C30.755 19.453 29.5517 19.6363 28.4151 19.9758L27.4241 17.5832L27.0759 16.7425C28.2584 15.6767 28.7058 13.9405 28.0627 12.3879C27.4618 10.9373 26.0588 10 24.4888 10C23.9801 10 23.4825 10.0993 23.0099 10.2951C21.0399 11.1112 20.101 13.3778 20.917 15.3479C21.5179 16.7984 22.9207 17.7358 24.4908 17.7358C24.5589 17.7358 24.6267 17.7338 24.6943 17.7302L25.0434 18.5729L26.0341 20.9647C23.8936 22.1267 22.1269 23.8932 20.9651 26.0338L18.5733 25.0431L17.7296 24.6937C17.8121 23.1039 16.9008 21.5599 15.3483 20.9167C14.8756 20.7209 14.3781 20.6217 13.8694 20.6217C12.2992 20.6217 10.8965 21.559 10.2955 23.0096C9.47954 24.9797 10.4184 27.2463 12.3884 28.0624C12.8611 28.2582 13.3587 28.3574 13.8673 28.3574C14.9892 28.3574 16.0254 27.8787 16.7449 27.0764L17.5837 27.4238L19.9763 28.4148C19.6367 29.5513 19.4535 30.7546 19.4535 32C19.4535 33.2454 19.6368 34.4487 19.9763 35.5853L17.5836 36.5761L16.7449 36.9236C16.0253 36.1213 14.9891 35.6425 13.8672 35.6425C13.3586 35.6425 12.861 35.7418 12.3883 35.9376C10.4184 36.7537 9.47946 39.0203 10.2955 40.9904C10.8964 42.4409 12.2992 43.3783 13.8693 43.3783C14.378 43.3783 14.8755 43.2791 15.3482 43.0832C16.9007 42.4401 17.812 40.8961 17.7295 39.3063L18.5732 38.9569L20.965 37.9662C22.1269 40.1068 23.8935 41.8734 26.034 43.0353L25.0433 45.4271L24.6942 46.2698C24.6266 46.2662 24.5588 46.2642 24.4907 46.2642C22.9206 46.2642 21.5178 47.2015 20.9169 48.6521C20.1009 50.6222 21.0397 52.8888 23.0098 53.7049C23.4824 53.9007 23.98 53.9999 24.4887 53.9999C26.0588 53.9999 27.4616 53.0626 28.0625 51.612C28.7056 50.0594 28.2582 48.3232 27.0757 47.2574L27.4239 46.4167L28.415 44.0241C29.5515 44.3636 30.7548 44.5469 32.0002 44.5469C33.2456 44.5469 34.4489 44.3636 35.5854 44.0241L36.5764 46.4167L36.9247 47.2574C35.7422 48.3232 35.2948 50.0594 35.9378 51.6121C36.5387 53.0626 37.9416 54 39.5116 54C40.0203 54 40.5179 53.9007 40.9905 53.7049C42.9605 52.8888 43.8994 50.6222 43.0834 48.6521C42.4825 47.2016 41.0796 46.2642 39.5096 46.2642C39.4415 46.2642 39.3737 46.2662 39.3061 46.2698L38.957 45.4271L37.9663 43.0353C40.1068 41.8733 41.8735 40.1068 43.0353 37.9662L45.4271 38.9569L46.2708 39.3063C46.1883 40.8961 47.0996 42.4401 48.6521 43.0833C49.1248 43.2791 49.6223 43.3783 50.131 43.3783C51.7012 43.3783 53.1039 42.441 53.7049 40.9904C54.5211 39.0203 53.5823 36.7536 51.6122 35.9375ZM32.0004 41.9686C26.5036 41.9686 22.0316 37.4966 22.0316 31.9999C22.0316 26.5031 26.5036 22.0311 32.0004 22.0311C37.4971 22.0311 41.9691 26.5031 41.9691 31.9999C41.9691 37.4966 37.497 41.9686 32.0004 41.9686Z" fill="black"/>
<path d="M51.6122 35.9375C51.1396 35.7418 50.642 35.6425 50.1333 35.6425C49.0115 35.6425 47.9753 36.1213 47.2557 36.9236L46.417 36.5761L44.0244 35.5851C44.3639 34.4486 44.5471 33.2453 44.5471 31.9999C44.5471 30.7545 44.3638 29.5512 44.0244 28.4147L46.417 27.4236L47.2557 27.0762C47.9753 27.8785 49.0115 28.3572 50.1333 28.3572C50.642 28.3572 51.1396 28.258 51.6122 28.0621C53.5822 27.2461 54.5211 24.9795 53.705 23.0094C53.1042 21.5588 51.7013 20.6214 50.1313 20.6214C49.6226 20.6214 49.125 20.7207 48.6524 20.9165C47.0998 21.5596 46.1885 23.1036 46.271 24.6934L45.4274 25.0428L43.0356 26.0335C41.8736 23.893 40.1071 22.1264 37.9666 20.9645L38.9573 18.5727L39.3063 17.73C39.374 17.7335 39.4418 17.7356 39.5098 17.7356C41.08 17.7356 42.4827 16.7982 43.0837 15.3476C43.8997 13.3776 42.9608 11.1109 40.9908 10.2949C40.518 10.0993 40.0206 10 39.5119 10C37.9417 10 36.539 10.9373 35.938 12.3879C35.2949 13.9405 35.7423 15.6767 36.9248 16.7425L36.5766 17.5832L35.5856 19.9758C34.4491 19.6363 33.2458 19.453 32.0004 19.453C30.755 19.453 29.5517 19.6363 28.4151 19.9758L27.4241 17.5832L27.0759 16.7425C28.2584 15.6767 28.7058 13.9405 28.0627 12.3879C27.4618 10.9373 26.0588 10 24.4888 10C23.9801 10 23.4825 10.0993 23.0099 10.2951C21.0399 11.1112 20.101 13.3778 20.917 15.3479C21.5179 16.7984 22.9207 17.7358 24.4908 17.7358C24.5589 17.7358 24.6267 17.7338 24.6943 17.7302L25.0434 18.5729L26.0341 20.9647C23.8936 22.1267 22.1269 23.8932 20.9651 26.0338L18.5733 25.0431L17.7296 24.6937C17.8121 23.1039 16.9008 21.5599 15.3483 20.9167C14.8756 20.7209 14.3781 20.6217 13.8694 20.6217C12.2992 20.6217 10.8965 21.559 10.2955 23.0096C9.47954 24.9797 10.4184 27.2463 12.3884 28.0624C12.8611 28.2582 13.3587 28.3574 13.8673 28.3574C14.9892 28.3574 16.0254 27.8787 16.7449 27.0764L17.5837 27.4238L19.9763 28.4148C19.6367 29.5513 19.4535 30.7546 19.4535 32C19.4535 33.2454 19.6368 34.4487 19.9763 35.5853L17.5836 36.5761L16.7449 36.9236C16.0253 36.1213 14.9891 35.6425 13.8672 35.6425C13.3586 35.6425 12.861 35.7418 12.3883 35.9376C10.4184 36.7537 9.47946 39.0203 10.2955 40.9904C10.8964 42.4409 12.2992 43.3783 13.8693 43.3783C14.378 43.3783 14.8755 43.2791 15.3482 43.0832C16.9007 42.4401 17.812 40.8961 17.7295 39.3063L18.5732 38.9569L20.965 37.9662C22.1269 40.1068 23.8935 41.8734 26.034 43.0353L25.0433 45.4271L24.6942 46.2698C24.6266 46.2662 24.5588 46.2642 24.4907 46.2642C22.9206 46.2642 21.5178 47.2015 20.9169 48.6521C20.1009 50.6222 21.0397 52.8888 23.0098 53.7049C23.4824 53.9007 23.98 53.9999 24.4887 53.9999C26.0588 53.9999 27.4616 53.0626 28.0625 51.612C28.7056 50.0594 28.2582 48.3232 27.0757 47.2574L27.4239 46.4167L28.415 44.0241C29.5515 44.3636 30.7548 44.5469 32.0002 44.5469C33.2456 44.5469 34.4489 44.3636 35.5854 44.0241L36.5764 46.4167L36.9247 47.2574C35.7422 48.3232 35.2948 50.0594 35.9378 51.6121C36.5387 53.0626 37.9416 54 39.5116 54C40.0203 54 40.5179 53.9007 40.9905 53.7049C42.9605 52.8888 43.8994 50.6222 43.0834 48.6521C42.4825 47.2016 41.0796 46.2642 39.5096 46.2642C39.4415 46.2642 39.3737 46.2662 39.3061 46.2698L38.957 45.4271L37.9663 43.0353C40.1068 41.8733 41.8735 40.1068 43.0353 37.9662L45.4271 38.9569L46.2708 39.3063C46.1883 40.8961 47.0996 42.4401 48.6521 43.0833C49.1248 43.2791 49.6223 43.3783 50.131 43.3783C51.7012 43.3783 53.1039 42.441 53.7049 40.9904C54.5211 39.0203 53.5823 36.7536 51.6122 35.9375ZM32.0004 41.9686C26.5036 41.9686 22.0316 37.4966 22.0316 31.9999C22.0316 26.5031 26.5036 22.0311 32.0004 22.0311C37.4971 22.0311 41.9691 26.5031 41.9691 31.9999C41.9691 37.4966 37.497 41.9686 32.0004 41.9686Z" fill="url(#paint0_linear)"/>
<path d="M32.0001 24.6093C27.925 24.6093 24.6095 27.9247 24.6095 31.9999C24.6095 36.075 27.925 39.3905 32.0001 39.3905C36.0753 39.3905 39.3907 36.075 39.3907 31.9999C39.3907 27.9247 36.0753 24.6093 32.0001 24.6093ZM33.2892 34.8358H30.711V29.1639H33.2892V34.8358Z" fill="black"/>
<path d="M32.0001 24.6093C27.925 24.6093 24.6095 27.9247 24.6095 31.9999C24.6095 36.075 27.925 39.3905 32.0001 39.3905C36.0753 39.3905 39.3907 36.075 39.3907 31.9999C39.3907 27.9247 36.0753 24.6093 32.0001 24.6093ZM33.2892 34.8358H30.711V29.1639H33.2892V34.8358Z" fill="url(#paint1_linear)"/>
<defs>
<linearGradient id="paint0_linear" x1="32.0003" y1="10" x2="32.0003" y2="54" gradientUnits="userSpaceOnUse">
<stop stop-color="#EF8080"/>
<stop offset="1" stop-color="#F0145A"/>
</linearGradient>
<linearGradient id="paint1_linear" x1="32.0001" y1="24.6093" x2="32.0001" y2="39.3905" gradientUnits="userSpaceOnUse">
<stop stop-color="#EF8080"/>
<stop offset="1" stop-color="#F0145A"/>
</linearGradient>
</defs>
</svg>
