<svg width="64" height="64" viewBox="0 0 64 64" fill="none" xmlns="http://www.w3.org/2000/svg">
<rect width="64" height="64" rx="18" fill="white"/>
<path fill-rule="evenodd" clip-rule="evenodd" d="M46.7478 34.1151V46.0055C46.7478 48.1322 45.0811 49.875 43.0435 49.875H20.9796C18.942 49.875 17.2753 48.1322 17.2753 46.0055V34.1151H28.7332V39.2788L32.0115 41.433L35.2899 39.2788V34.1151H46.7478Z" fill="url(#paint0_linear)"/>
<path fill-rule="evenodd" clip-rule="evenodd" d="M29.8815 34.1151V38.6584L32.0114 40.0579L34.1413 38.6584V34.1151H29.8815Z" fill="url(#paint1_linear)"/>
<path fill-rule="evenodd" clip-rule="evenodd" d="M18.3006 20.4105H45.7225C47.0167 20.4105 48.0744 21.5848 48.0744 23.0199V30.0689C48.0744 31.504 47.0167 32.6783 45.7225 32.6783H34.9659H29.0572H18.3006C17.0064 32.6783 15.9487 31.504 15.9487 30.0689V23.0199C15.9487 21.5848 17.0064 20.4105 18.3006 20.4105Z" fill="url(#paint2_linear)"/>
<path fill-rule="evenodd" clip-rule="evenodd" d="M26.302 14.0936H37.7211C38.782 14.0936 39.6502 14.9618 39.6502 16.0227V19.0322H37.2044V17.2537C37.2044 16.7743 36.8124 16.3807 36.333 16.3807H27.6901C27.2107 16.3807 26.8187 16.7743 26.8187 17.2537V19.0322H24.3729V16.0227C24.3729 14.9618 25.2411 14.0936 26.302 14.0936Z" fill="url(#paint3_linear)"/>
<defs>
<linearGradient id="paint0_linear" x1="32.0115" y1="34.1151" x2="32.0115" y2="49.875" gradientUnits="userSpaceOnUse">
<stop stop-color="#EF8080"/>
<stop offset="1" stop-color="#F0145A"/>
</linearGradient>
<linearGradient id="paint1_linear" x1="32.0114" y1="34.1151" x2="32.0114" y2="40.0579" gradientUnits="userSpaceOnUse">
<stop stop-color="#EF8080"/>
<stop offset="1" stop-color="#F0145A"/>
</linearGradient>
<linearGradient id="paint2_linear" x1="32.0116" y1="20.4105" x2="32.0116" y2="32.6783" gradientUnits="userSpaceOnUse">
<stop stop-color="#EF8080"/>
<stop offset="1" stop-color="#F0145A"/>
</linearGradient>
<linearGradient id="paint3_linear" x1="32.0116" y1="14.0936" x2="32.0116" y2="19.0322" gradientUnits="userSpaceOnUse">
<stop stop-color="#EF8080"/>
<stop offset="1" stop-color="#F0145A"/>
</linearGradient>
</defs>
</svg>
