<svg width="109" height="45" viewBox="0 0 109 45" fill="none" xmlns="http://www.w3.org/2000/svg">
<path fill-rule="evenodd" clip-rule="evenodd" d="M20.349 1.74854L20.5217 2.97354C15.0087 14.1088 22.0387 13.2023 22.0387 13.2023L22.9267 13.043L23.0623 13.3125C36.1233 11.8425 43.2643 18.5923 43.2643 18.5923C44.214 2.61829 20.349 1.74854 20.349 1.74854Z" fill="#F8B829"/>
<path d="M12.1473 39.3683C11.5923 43.0433 14.614 45.1748 15.095 43.9988C16.427 42.2715 16.8956 42.7738 17.5616 40.1768C17.8048 39.8543 18.0864 39.5622 18.4003 39.307C19.0745 38.6129 19.7241 37.9024 20.349 37.1755C22.1921 35.1045 23.7666 32.8123 25.0356 30.3523C26.4436 27.8684 26.957 24.982 26.491 22.1693C25.9865 20.7464 25.2671 19.4081 24.3573 18.2003C24.0796 17.5679 23.9529 16.8803 23.9873 16.1913C23.9567 15.1605 23.6456 14.1572 23.087 13.288C22.7986 12.9791 22.5791 12.6132 22.4431 12.2142C22.3071 11.8152 22.2575 11.3921 22.2976 10.9728C22.458 10.0418 22.458 9.12302 22.5936 8.19202C22.6791 6.45235 22.3583 4.71662 21.6563 3.12052C21.6563 3.12052 20.793 1.60152 20.0283 1.98127C18.6668 1.1251 17.0844 0.679779 15.4732 0.699349C13.8619 0.718919 12.2909 1.20254 10.951 2.09152C10.951 2.09152 -6.71037 13.3003 9.21196 34.8358C8.73096 37.6288 10.4453 40.5075 11.7773 42.4185" fill="#005D86"/>
<path d="M20.275 14.7826L17.8823 3.95362C17.8823 3.95362 16.4763 -0.211384 12.7763 5.04387L12.1596 4.23537C8.75565 9.02512 4.14298 14.7704 5.16665 20.9934C5.31554 22.142 5.71491 23.2446 6.3369 24.2241C6.95889 25.2037 7.78854 26.0367 8.76798 26.6651C10.2113 27.6606 11.9587 28.1257 13.7098 27.9804C15.4609 27.8351 17.1063 27.0885 18.3633 25.8689C20.2873 24.2764 21.8536 21.0424 20.275 14.7826Z" fill="white"/>
<path fill-rule="evenodd" clip-rule="evenodd" d="M23.0623 13.3495C23.0623 13.3495 34.4829 11.5855 43.2643 18.6293C43.2643 18.6293 35.0009 7.86153 21.8289 9.85828C21.8413 9.85828 20.8916 12.5043 23.0623 13.3495Z" fill="#F19320"/>
<path d="M43.2643 18.6292C43.4964 15.8507 42.7889 13.0745 41.2539 10.7402C41.1306 10.581 40.1809 12.639 40.1686 12.8227C40.1181 13.6811 40.3287 14.5347 40.7729 15.2727C41.4019 16.4242 42.9313 17.3675 43.2396 18.6047" fill="#E95253"/>
<path d="M0.233276 34.1865C1.84757 34.7967 3.60903 34.9119 5.28994 34.5173C7.64561 34.8358 8.87894 35.5708 11.6909 35.8893C15.1319 35.8893 18.5483 35.5218 21.9646 35.2033C23.0746 35.1053 25.5413 34.9705 26.4786 35.8403C27.0213 36.3425 26.8609 37.7023 26.8733 38.4128C24.8345 37.6406 22.6878 37.1861 20.5093 37.0653C18.0426 37.0653 15.4896 37.1755 12.9859 37.151C11.2782 37.156 9.57342 37.0084 7.89228 36.71C6.32594 36.416 4.78428 36.0118 3.21794 35.6933C2.08328 35.4483 0.701943 35.2523 0.233276 34.1865Z" fill="#9B5F48"/>
<path d="M22.2236 36.3914C22.2236 36.7834 21.8783 37.6164 21.5576 37.6164C21.2369 37.6164 20.8916 36.7956 20.8916 36.3914V35.0071C20.8916 34.6151 21.1383 34.2231 21.4589 34.2231C21.6529 34.2526 21.8312 34.3459 21.9654 34.488C22.0996 34.6302 22.1818 34.813 22.1989 35.0071L22.2236 36.3914Z" fill="#969595"/>
<path d="M20.8916 36.5875C20.8916 36.8938 20.6449 37.5308 20.3859 37.5308C20.1269 37.5308 19.8802 36.8938 19.8802 36.5875V35.4973C19.8802 35.191 20.0652 34.8848 20.3242 34.8848C20.4726 34.9076 20.6081 34.9815 20.7073 35.0934C20.8064 35.2053 20.8629 35.3482 20.8669 35.4973L20.8916 36.5875Z" fill="#838383"/>
<path d="M8.65698 36.3914C8.65698 36.7834 9.00232 37.6164 9.32298 37.6164C9.64365 37.6164 9.98898 36.7956 9.98898 36.3914V35.0071C9.98898 34.6151 9.74231 34.2231 9.42165 34.2231C9.22771 34.2526 9.04934 34.3459 8.91516 34.488C8.78097 34.6302 8.69874 34.813 8.68165 35.0071L8.65698 36.3914Z" fill="#969595"/>
<path d="M9.98889 36.5875C9.98889 36.8938 10.2356 37.5308 10.4946 37.5308C10.7536 37.5308 11.0002 36.8938 11.0002 36.5875V35.4973C11.0002 35.191 10.8152 34.8848 10.5562 34.8848C10.4079 34.9076 10.2724 34.9815 10.1732 35.0934C10.074 35.2053 10.0176 35.3482 10.0136 35.4973L9.98889 36.5875Z" fill="#838383"/>
<path d="M22.7909 9.61286C23.0869 8.91461 23.6296 6.74636 22.1249 3.01011C21.8536 2.43436 21.1753 1.09911 19.7323 1.78511C19.5226 2.10361 22.3346 3.85536 21.7549 10.0294C21.7549 10.0294 21.0273 12.6141 23.0623 13.3369C22.7594 12.7013 22.6035 12.0065 22.6059 11.3034C22.5629 10.7334 22.6256 10.1604 22.7909 9.61286ZM22.6553 9.85786C22.6553 9.85786 22.6553 9.85786 22.6676 9.85786H22.6553Z" fill="#003B55"/>
<path d="M20.3489 7.33433C20.8916 10.2253 19.4362 11.8668 16.5502 11.9036C14.3302 11.9036 11.0989 11.4381 10.7906 8.74308C10.5316 6.40333 12.0239 3.23058 14.4166 2.52008C17.7342 1.51558 19.8309 4.49233 20.3612 7.33433H20.3489Z" fill="#F8B829"/>
<path d="M18.5852 7.12647C18.6991 7.46671 18.7232 7.83029 18.6551 8.18241C18.587 8.53452 18.4291 8.86338 18.1964 9.13752C17.9637 9.41165 17.6641 9.62187 17.3262 9.74806C16.9883 9.87425 16.6235 9.91218 16.2666 9.85822C14.8606 9.85822 12.8996 9.52747 12.7763 7.82472C12.7102 7.05025 12.8932 6.27493 13.2987 5.61021C13.7042 4.94548 14.3115 4.42558 15.0333 4.12522C17.0189 3.57397 18.2522 5.35022 18.5482 7.07747L18.5852 7.12647Z" fill="#005D86"/>
<path fill-rule="evenodd" clip-rule="evenodd" d="M17.5 6.75872C17.5 7.21519 17.3174 7.65297 16.9924 7.97574C16.6675 8.29852 16.2267 8.47985 15.7671 8.47985C15.3076 8.47985 14.8668 8.29852 14.5418 7.97574C14.2169 7.65297 14.0343 7.21519 14.0343 6.75872C14.0343 6.30225 14.2169 5.86448 14.5418 5.5417C14.8668 5.21893 15.3076 5.0376 15.7671 5.0376C16.2267 5.0376 16.6675 5.21893 16.9924 5.5417C17.3174 5.86448 17.5 6.30225 17.5 6.75872Z" fill="#151410"/>
<path fill-rule="evenodd" clip-rule="evenodd" d="M16.0077 5.66841C16.0077 5.97466 15.7363 5.66841 15.7363 5.66841C15.7363 5.66841 16.0077 5.34991 16.0077 5.66841Z" fill="white"/>
<path fill-rule="evenodd" clip-rule="evenodd" d="M15.0332 5.65641C14.8606 5.65641 14.8236 5.84016 14.7989 6.03616C14.7524 6.05374 14.7104 6.08145 14.6761 6.11725C14.6418 6.15305 14.616 6.19604 14.6007 6.24304C14.5853 6.29005 14.5807 6.33988 14.5873 6.38887C14.5938 6.43787 14.6113 6.48478 14.6386 6.52616C14.6386 6.52616 15.4772 5.74216 15.5389 5.79116C15.4689 5.73463 15.3877 5.69342 15.3005 5.6702C15.2134 5.64698 15.1223 5.64228 15.0332 5.65641Z" fill="white"/>
<path d="M42.5982 33.917C42.6954 33.9148 42.792 33.9333 42.8814 33.9713C42.9707 34.0094 43.0508 34.0661 43.1162 34.1375L44.5715 35.681C42.3639 38.474 38.1335 39.0988 34.9022 37.9105C33.2959 37.2582 31.9248 36.1402 30.9678 34.7023C30.0108 33.2645 29.5122 31.5735 29.5372 29.85C29.4044 28.1039 29.795 26.3578 30.6598 24.8318C31.5245 23.3058 32.8248 22.0682 34.3965 21.275C36.0186 20.5252 37.8275 20.2682 39.5961 20.5363C41.3648 20.8044 43.0142 21.5856 44.3372 22.7818L43.1039 24.4478C42.4379 25.4033 41.4142 24.3498 40.7235 24.019C39.6989 23.5499 38.5562 23.3963 37.4429 23.578C36.3001 23.8128 35.271 24.4249 34.523 25.3146C33.775 26.2043 33.3523 27.3193 33.3235 28.478C33.1419 29.576 33.2486 30.7019 33.6331 31.747C34.0177 32.7921 34.6672 33.7209 35.5189 34.4438C36.492 35.0913 37.6504 35.4079 38.8201 35.3461C39.9898 35.2842 41.1078 34.8473 42.0062 34.1008C42.1773 33.9755 42.3857 33.9108 42.5982 33.917Z" fill="white"/>
<path d="M49.5666 20.1851V38.2416H46.1749V20.1851H49.5666Z" fill="white"/>
<path d="M55.8072 25.7583V38.2533H52.4525V25.7583H55.8072Z" fill="white"/>
<path d="M56.2142 22.1326C56.2142 24.7419 52.0455 24.7541 52.0455 22.1326C52.0455 19.5111 56.2142 19.5111 56.2142 22.1326Z" fill="white"/>
<path d="M67.8075 28.5393C67.2772 29.2498 66.7098 28.8088 66.1178 28.5393C65.3881 28.1301 64.5344 27.9953 63.7128 28.1596C62.0108 28.5393 61.5175 30.2666 61.4682 31.8346C61.4188 33.4026 61.7518 35.1911 63.3058 35.8158C63.7019 35.9661 64.1242 36.0359 64.5479 36.0212C64.9716 36.0065 65.388 35.9075 65.7725 35.7301C66.3768 35.4483 67.2402 34.3826 67.8692 35.2033L68.8312 36.4283C67.962 37.3427 66.8464 37.9894 65.6174 38.2914C64.3884 38.5933 63.0979 38.5376 61.8998 38.1311C60.719 37.6593 59.7141 36.8362 59.023 35.7747C58.3318 34.7131 57.9883 33.4652 58.0395 32.2021C57.9243 30.9125 58.2195 29.6195 58.8832 28.5053C59.547 27.3911 60.546 26.5118 61.7395 25.9913C62.9133 25.5417 64.1922 25.4355 65.425 25.6851C66.6577 25.9348 67.7926 26.5299 68.6955 27.4001L67.8075 28.5393Z" fill="white"/>
<path d="M73.8632 20.1851V30.4383H74.4182C74.587 30.4463 74.7551 30.411 74.9063 30.3359C75.0574 30.2609 75.1867 30.1485 75.2815 30.0096L78.0565 26.3346C78.1844 26.1551 78.3548 26.0098 78.5527 25.9115C78.7507 25.8132 78.97 25.765 79.1912 25.7711H82.2622L78.6732 30.3036C78.4082 30.6645 78.0727 30.9687 77.6865 31.1978C78.0498 31.4724 78.3521 31.8186 78.5745 32.2146L82.4595 38.2293H79.4379C79.2139 38.245 78.9898 38.1997 78.7899 38.0982C78.5899 37.9968 78.4217 37.843 78.3032 37.6536L75.4665 33.0721C75.381 32.9135 75.2493 32.7843 75.0887 32.7013C74.9281 32.6182 74.746 32.5852 74.5662 32.6066H73.8632V38.2416H70.5332V20.1851H73.8632Z" fill="white"/>
<path d="M87.1709 20.1851V30.4383H87.726C87.8948 30.4463 88.0628 30.411 88.214 30.3359C88.3652 30.2609 88.4944 30.1485 88.5893 30.0096L91.3643 26.3346C91.4921 26.1551 91.6626 26.0098 91.8605 25.9115C92.0584 25.8132 92.2777 25.765 92.499 25.7711H95.57L91.9563 30.3281C91.6913 30.689 91.3557 30.9932 90.9696 31.2223C91.3329 31.4969 91.6352 31.8431 91.8576 32.2391L95.7426 38.2538H92.7333C92.5093 38.2695 92.2853 38.2242 92.0853 38.1227C91.8853 38.0213 91.7171 37.8675 91.5986 37.6781L88.7743 33.0843C88.6887 32.9258 88.5571 32.7966 88.3965 32.7135C88.2358 32.6305 88.0537 32.5975 87.8739 32.6188H87.1709V38.2538H83.804V20.1851H87.1709Z" fill="white"/>
<path d="M101.983 41.5977C101.897 41.8119 101.744 41.9929 101.546 42.1142C101.349 42.2355 101.117 42.2906 100.886 42.2715H98.4189L100.762 37.2L95.7179 25.7095H98.6656C98.8652 25.7004 99.0628 25.7534 99.2307 25.8609C99.3987 25.9685 99.5288 26.1254 99.6029 26.3097L101.996 32.3C102.168 32.7737 102.316 33.2473 102.44 33.721C102.588 33.2432 102.76 32.7655 102.945 32.2877L105.165 26.322C105.239 26.1427 105.366 25.9896 105.529 25.8825C105.691 25.7755 105.883 25.7195 106.078 25.7217H108.767L101.983 41.5977Z" fill="white"/>
</svg>
