<svg width="144" height="36" viewBox="0 0 144 36" fill="none" xmlns="http://www.w3.org/2000/svg">
<g clip-path="url(#clip0)">
<path d="M36.5019 18C36.5019 13.9452 35.1137 10.0091 32.5623 6.82952C30.0108 3.64994 26.4456 1.41315 22.4442 0.481534C18.4428 -0.45008 14.2397 -0.0219327 10.5158 1.69661C6.79193 3.41515 3.76549 6.3234 1.92683 9.95017C0.0881594 13.5769 -0.455017 17.7097 0.385301 21.679C1.22562 25.6483 3.4002 29.2214 6.55672 31.8195C9.71324 34.4177 13.6668 35.8886 17.7768 35.9939C21.8868 36.0993 25.9124 34.8329 29.2015 32.4H17.7886C14.9377 32.3237 12.1718 31.4256 9.83247 29.8166C7.49318 28.2075 5.68291 25.958 4.62519 23.3458C3.56747 20.7336 3.30861 17.8731 3.88057 15.1174C4.45254 12.3618 5.83028 9.83166 7.84369 7.83949C9.85709 5.84732 12.418 4.48033 15.2102 3.9073C18.0024 3.33427 20.9036 3.5803 23.5557 4.615C26.2077 5.64971 28.4944 7.42778 30.1335 9.72968C31.7725 12.0316 32.6921 14.7565 32.7787 17.568V28.8C35.1934 25.7035 36.5024 21.9064 36.5019 18Z" fill="white"/>
<path d="M27.3642 26.9878V19.4278H21.6942C21.3473 20.2183 20.7432 20.8722 19.9775 21.2864C19.2118 21.7006 18.3279 21.8514 17.4656 21.7151C16.6033 21.5787 15.8116 21.163 15.2155 20.5335C14.6194 19.904 14.2529 19.0966 14.1738 18.2388C14.0947 17.381 14.3076 16.5217 14.7788 15.7965C15.2501 15.0713 15.9528 14.5216 16.7761 14.2342C17.5993 13.9467 18.4962 13.9379 19.3251 14.2091C20.154 14.4803 20.8678 15.0161 21.3536 15.7318H27.0844C26.6805 14.0946 25.8234 12.6002 24.6087 11.4152C23.394 10.2303 21.8695 9.40138 20.2051 9.02097C18.5407 8.64056 16.8019 8.72359 15.1826 9.2608C13.5632 9.79801 12.127 10.7683 11.0341 12.0634C9.94115 13.3586 9.23448 14.9277 8.99285 16.5957C8.75123 18.2638 8.98415 19.9653 9.66565 21.5104C10.3472 23.0556 11.4504 24.3837 12.8525 25.3466C14.2545 26.3095 15.9002 26.8694 17.606 26.9638L27.3642 26.9878Z" fill="white"/>
<path d="M49.1559 12.9241C47.9147 12.9265 46.7021 13.2917 45.6712 13.9735C44.6403 14.6553 43.8375 15.6232 43.3642 16.7548C42.8909 17.8865 42.7683 19.1311 43.0119 20.3315C43.2555 21.5318 43.8544 22.634 44.733 23.4987C45.6115 24.3635 46.7302 24.9521 47.9477 25.19C49.1653 25.4279 50.427 25.3046 51.5735 24.8356C52.72 24.3666 53.6998 23.573 54.3892 22.555C55.0785 21.5369 55.4464 20.3403 55.4464 19.1161C55.4546 18.2997 55.2974 17.4899 54.984 16.7343C54.6706 15.9786 54.2073 15.2923 53.6214 14.7155C53.0355 14.1388 52.3387 13.6832 51.5719 13.3756C50.8051 13.068 49.9837 12.9145 49.1559 12.9241ZM49.1559 22.3561C48.726 22.363 48.2991 22.2833 47.9014 22.1219C47.5038 21.9606 47.1436 21.721 46.843 21.4178C46.5424 21.1145 46.3076 20.754 46.153 20.3583C45.9984 19.9626 45.9272 19.5399 45.9438 19.1161C45.9167 18.6829 45.9799 18.2488 46.1294 17.8405C46.279 17.4323 46.5116 17.0586 46.8131 16.7424C47.1146 16.4262 47.4785 16.1742 47.8825 16.002C48.2865 15.8297 48.7219 15.7409 49.162 15.7409C49.6021 15.7409 50.0376 15.8297 50.4415 16.002C50.8455 16.1742 51.2094 16.4262 51.5109 16.7424C51.8124 17.0586 52.0451 17.4323 52.1946 17.8405C52.3441 18.2488 52.4073 18.6829 52.3803 19.1161C52.3969 19.5409 52.3254 19.9646 52.17 20.3612C52.0147 20.7577 51.7788 21.1188 51.4769 21.4222C51.1749 21.7256 50.8133 21.965 50.4142 22.1256C50.0151 22.2861 49.5869 22.3646 49.1559 22.3561ZM60.5202 15.2761V13.2001H57.454V24.9361H60.5202V19.3801C60.4984 18.927 60.5836 18.475 60.7692 18.0599C60.9548 17.6448 61.2356 17.2779 61.5896 16.9881C61.9435 16.6984 62.3609 16.4937 62.8088 16.3903C63.2567 16.2869 63.7228 16.2875 64.1704 16.3921V13.0201C63.398 12.9657 62.628 13.1549 61.9719 13.5604C61.3157 13.966 60.8073 14.5668 60.5202 15.2761ZM74.7316 14.6401C74.2678 14.0755 73.6761 13.626 73.004 13.328C72.332 13.03 71.5985 12.8916 70.8624 12.9241C70.0707 12.9549 69.293 13.1398 68.5741 13.4682C67.8551 13.7965 67.2091 14.2617 66.6731 14.8372C66.1371 15.4127 65.7217 16.0869 65.4509 16.8213C65.1801 17.5556 65.0592 18.3355 65.0951 19.1161C65.0592 19.8967 65.1801 20.6766 65.4509 21.4109C65.7217 22.1453 66.1371 22.8196 66.6731 23.395C67.2091 23.9705 67.8551 24.4357 68.5741 24.7641C69.293 25.0924 70.0707 25.2773 70.8624 25.3081C71.5985 25.3406 72.332 25.2023 73.004 24.9042C73.6761 24.6062 74.2678 24.1568 74.7316 23.5921V24.9841H77.7977V13.2001H74.7316V14.6401ZM71.4343 22.4281C70.9918 22.4438 70.5508 22.3683 70.1396 22.2066C69.7283 22.0449 69.3556 21.8005 69.0454 21.4889C68.7352 21.1773 68.4942 20.8054 68.3378 20.3969C68.1814 19.9883 68.113 19.5522 68.1369 19.1161C68.1369 18.2568 68.483 17.4327 69.0991 16.8251C69.7152 16.2175 70.5508 15.8761 71.4221 15.8761C72.2934 15.8761 73.129 16.2175 73.7451 16.8251C74.3611 17.4327 74.7073 18.2568 74.7073 19.1161C74.7291 19.5496 74.6601 19.9829 74.5045 20.389C74.3489 20.795 74.11 21.165 73.8028 21.4758C73.4956 21.7867 73.1268 22.0317 72.7192 22.1955C72.3117 22.3594 71.8742 22.4386 71.4343 22.4281ZM87.0814 12.9241C86.3983 12.8798 85.7151 13.0074 85.0957 13.295C84.4764 13.5826 83.9413 14.0207 83.5407 14.5681V13.2001H80.4867V24.9361H83.5407V18.6481C83.5407 16.6081 84.6601 15.7441 86.1567 15.7441C86.4784 15.7212 86.8014 15.7682 87.1026 15.8819C87.4039 15.9957 87.6762 16.1733 87.9002 16.4022C88.1242 16.6312 88.2945 16.9058 88.399 17.2068C88.5035 17.5078 88.5397 17.8278 88.505 18.1441V24.9721H91.5711V17.7721C91.5711 14.6641 89.6 12.9241 87.0814 12.9241ZM103.179 14.7121C102.741 14.1325 102.166 13.6668 101.505 13.3553C100.843 13.0438 100.115 12.8958 99.3825 12.9241C98.5934 12.9303 97.8133 13.091 97.0875 13.3968C96.3618 13.7026 95.7049 14.1475 95.1548 14.7056C94.6047 15.2637 94.1725 15.924 93.8831 16.6482C93.5938 17.3723 93.4531 18.1459 93.4692 18.9241C93.4515 19.7027 93.591 20.477 93.8798 21.2019C94.1685 21.9268 94.6007 22.5877 95.1511 23.1462C95.7015 23.7047 96.3591 24.1495 97.0856 24.4547C97.8121 24.76 98.5929 24.9195 99.3825 24.9241C100.115 24.9524 100.843 24.8045 101.505 24.4929C102.166 24.1814 102.741 23.7157 103.179 23.1361V24.4081C103.205 24.8088 103.142 25.2104 102.992 25.584C102.843 25.9576 102.612 26.294 102.316 26.5693C102.019 26.8445 101.665 27.0516 101.277 27.1759C100.89 27.3002 100.48 27.3385 100.076 27.2881C99.4484 27.3644 98.8121 27.2473 98.2545 26.953C97.6968 26.6587 97.2451 26.2015 96.9613 25.6441L94.3453 27.1321C94.9262 28.0747 95.7594 28.8411 96.7533 29.347C97.7471 29.853 98.8632 30.079 99.9787 30.0001C103.106 30.0001 106.172 28.2601 106.172 24.4201V13.2001H103.179V14.7121ZM99.8571 22.1401C99.2184 22.126 98.5981 21.9264 98.0738 21.5663C97.5495 21.2063 97.1445 20.7018 96.9094 20.1159C96.6743 19.5301 96.6196 18.8888 96.752 18.2725C96.8845 17.6561 97.1984 17.0919 97.6543 16.6505C98.1102 16.2091 98.6879 15.9101 99.3152 15.7908C99.9425 15.6716 100.592 15.7374 101.181 15.98C101.771 16.2227 102.275 16.6314 102.63 17.155C102.985 17.6787 103.176 18.294 103.179 18.9241C103.191 19.3548 103.113 19.7834 102.949 20.183C102.786 20.5826 102.541 20.9447 102.229 21.2465C101.917 21.5484 101.546 21.7835 101.138 21.9373C100.729 22.091 100.293 22.1601 99.8571 22.1401ZM114.519 12.9241C113.691 12.9041 112.868 13.0509 112.099 13.3556C111.331 13.6604 110.634 14.1165 110.051 14.6962C109.468 15.2759 109.011 15.9669 108.708 16.7269C108.405 17.4869 108.262 18.2999 108.289 19.1161C108.26 19.9567 108.41 20.7939 108.73 21.5736C109.049 22.3532 109.532 23.0578 110.146 23.6417C110.759 24.2256 111.491 24.6757 112.292 24.9627C113.094 25.2498 113.948 25.3675 114.799 25.3081C115.798 25.3446 116.792 25.1343 117.688 24.6964C118.585 24.2584 119.357 23.6066 119.933 22.8001L117.5 21.3961C117.179 21.7844 116.771 22.0946 116.309 22.3027C115.847 22.5108 115.343 22.6112 114.835 22.5961C114.098 22.6903 113.351 22.5204 112.73 22.1174C112.11 21.7144 111.656 21.105 111.452 20.4001H120.456C120.532 20.0043 120.573 19.6028 120.578 19.2001C120.626 18.3888 120.505 17.5763 120.222 16.8132C119.938 16.0501 119.499 15.3525 118.931 14.764C118.362 14.1754 117.677 13.7083 116.919 13.3918C116.16 13.0753 115.343 12.9161 114.519 12.9241ZM111.404 18.0001C111.531 17.2915 111.92 16.6544 112.495 16.2113C113.07 15.7683 113.791 15.5506 114.519 15.6001C115.222 15.5744 115.911 15.8047 116.454 16.2472C116.997 16.6897 117.356 17.3136 117.463 18.0001H111.404ZM131.577 14.6281C131.117 14.0723 130.533 13.6292 129.87 13.3336C129.207 13.0379 128.484 12.8978 127.757 12.9241C126.965 12.9549 126.187 13.1398 125.468 13.4682C124.749 13.7965 124.103 14.2617 123.567 14.8372C123.031 15.4127 122.616 16.0869 122.345 16.8213C122.074 17.5556 121.953 18.3355 121.989 19.1161C121.953 19.8967 122.074 20.6766 122.345 21.4109C122.616 22.1453 123.031 22.8196 123.567 23.395C124.103 23.9705 124.749 24.4357 125.468 24.7641C126.187 25.0924 126.965 25.2773 127.757 25.3081C128.493 25.3406 129.226 25.2023 129.898 24.9042C130.57 24.6062 131.162 24.1568 131.626 23.5921V24.9841H134.692V13.2001H131.626L131.577 14.6281ZM128.28 22.4161C127.839 22.4284 127.401 22.3504 126.993 22.1872C126.584 22.0239 126.215 21.779 125.907 21.4678C125.6 21.1565 125.361 20.7858 125.206 20.379C125.051 19.9722 124.983 19.5381 125.007 19.1041C125.007 18.2448 125.353 17.4207 125.969 16.8131C126.585 16.2055 127.421 15.8641 128.292 15.8641C129.163 15.8641 129.999 16.2055 130.615 16.8131C131.231 17.4207 131.577 18.2448 131.577 19.1041C131.601 19.5407 131.533 19.9774 131.376 20.3865C131.22 20.7956 130.979 21.1683 130.669 21.4808C130.359 21.7933 129.987 22.0389 129.575 22.202C129.164 22.365 128.723 22.442 128.28 22.4281V22.4161ZM140.386 15.2161V13.2001H137.32V24.9361H140.386V19.3801C140.364 18.927 140.45 18.475 140.635 18.0599C140.821 17.6448 141.102 17.2779 141.456 16.9881C141.81 16.6984 142.227 16.4937 142.675 16.3903C143.123 16.2869 143.589 16.2875 144.037 16.3921V13.0201C143.264 12.9657 142.494 13.1549 141.838 13.5604C141.182 13.966 140.673 14.5668 140.386 15.2761V15.2161Z" fill="white"/>
</g>
<defs>
<clipPath id="clip0">
<rect width="144" height="36" fill="white"/>
</clipPath>
</defs>
</svg>
