<svg width="128" height="33" viewBox="0 0 128 33" fill="none" xmlns="http://www.w3.org/2000/svg">
<path d="M6.45746 0.256348L0.143555 3.89773L6.45746 7.53911L0.143555 11.1236L6.45746 14.765L0.143555 18.3495L6.45746 21.9908L14.6655 17.3253L19.1427 21.9908V14.7934L25.4566 11.152L6.45746 0.256348ZM17.9947 18.9753L7.60544 8.16497L17.9947 14.0822V18.9753Z" fill="black"/>
<path d="M127.857 16.5002H125.618V12.8588H123.609V16.5002H121.313V18.4347H123.609V27.8795H125.618V18.4062H127.857V16.5002ZM116.377 16.2157C115.711 16.1795 115.047 16.3182 114.452 16.6179C113.857 16.9176 113.353 17.3677 112.99 17.9226V16.5002H110.981V27.8795H112.99V21.3648C112.954 20.9114 113.011 20.4554 113.159 20.0249C113.308 19.5943 113.543 19.1984 113.851 18.8614C114.396 18.3552 115.113 18.0708 115.86 18.0648C116.175 18.0489 116.49 18.0962 116.785 18.2037C117.081 18.3113 117.352 18.4769 117.582 18.6907C117.81 18.9336 117.984 19.2211 118.092 19.5347C118.201 19.8483 118.242 20.181 118.213 20.5114V27.7942H120.222V20.3976C120.235 19.6091 120.058 18.8289 119.706 18.1217C119.388 17.5153 118.913 17.0045 118.328 16.6424C117.724 16.3389 117.054 16.1829 116.377 16.1873V16.2157ZM99.8745 21.3648C99.9833 20.4411 100.433 19.5899 101.137 18.9752C101.86 18.3749 102.777 18.0518 103.72 18.0648C104.601 18.0516 105.458 18.3547 106.131 18.9183C106.487 19.2251 106.777 19.5999 106.984 20.0202C107.192 20.4405 107.311 20.8978 107.336 21.3648H99.8745ZM109.345 23.0717C109.393 22.7707 109.412 22.466 109.403 22.1614C109.407 21.1174 109.171 20.0862 108.714 19.1459C108.274 18.2471 107.601 17.481 106.762 16.9269C105.873 16.3657 104.831 16.0877 103.778 16.1304C102.692 16.1236 101.624 16.3982 100.678 16.9269C99.7805 17.4371 99.0448 18.186 98.5543 19.089C98.0393 20.031 97.7821 21.0903 97.8081 22.1614C97.7821 23.2325 98.0393 24.2918 98.5543 25.2338C99.0448 26.1368 99.7805 26.8857 100.678 27.3959C101.624 27.9246 102.692 28.1992 103.778 28.1924C104.959 28.2038 106.118 27.8672 107.107 27.2252C108.001 26.6222 108.667 25.7414 109.001 24.7217H106.935C106.689 25.2496 106.262 25.6732 105.729 25.9166C105.01 26.2736 104.206 26.4255 103.405 26.3552C102.604 26.2848 101.839 25.9951 101.195 25.5183C100.461 24.8954 99.9899 24.0223 99.8745 23.0717H109.345ZM89.9731 26.1726C89.2516 26.1787 88.5405 26.0024 87.9067 25.6605C87.2885 25.3038 86.7743 24.7941 86.4144 24.1812C86.0752 23.5508 85.8978 22.8474 85.8978 22.1329C85.8978 21.4185 86.0752 20.7151 86.4144 20.0847C86.7743 19.4718 87.2885 18.9621 87.9067 18.6054C88.5427 18.2692 89.2524 18.0933 89.9731 18.0933C90.6939 18.0933 91.4035 18.2692 92.0395 18.6054C92.6577 18.9621 93.1719 19.4718 93.5318 20.0847C93.871 20.7151 94.0484 21.4185 94.0484 22.1329C94.0484 22.8474 93.871 23.5508 93.5318 24.1812C93.1719 24.7941 92.6577 25.3038 92.0395 25.6605C91.4057 26.0024 90.6946 26.1787 89.9731 26.1726ZM94.0484 16.5002V18.4916C93.5816 17.8009 92.9509 17.2343 92.2117 16.8416C91.4352 16.4287 90.5673 16.2136 89.6861 16.2157C88.657 16.2241 87.648 16.4987 86.7588 17.0123C85.8612 17.5224 85.1255 18.2713 84.635 19.1743C84.1092 20.0733 83.832 21.0938 83.8314 22.1329C83.8321 23.19 84.109 24.2289 84.635 25.1485C85.1417 26.0396 85.8736 26.7847 86.7588 27.3105C87.6419 27.8383 88.6549 28.114 89.6861 28.1071C90.5461 28.113 91.3942 27.9084 92.1552 27.5114C92.9162 27.1143 93.5665 26.5372 94.0484 25.8312V27.4243C94.069 27.8943 93.9932 28.3636 93.8254 28.8037C93.6577 29.2438 93.4016 29.6456 93.0727 29.9847C92.289 30.6369 91.2811 30.9631 90.2601 30.895C89.6048 30.9243 88.9528 30.7872 88.3659 30.4967C87.8675 30.2884 87.4323 29.9551 87.1031 29.5295C86.8431 29.1844 86.7022 28.7654 86.7014 28.3347H84.6924C84.6958 29.1611 84.9787 29.9624 85.496 30.6105C86.0265 31.3038 86.7424 31.836 87.5623 32.1467C88.4083 32.5312 89.3295 32.7254 90.2601 32.7157C91.2514 32.7176 92.2311 32.504 93.1301 32.0898C93.997 31.6936 94.7332 31.0624 95.2538 30.2692C95.8009 29.4001 96.0802 28.3916 96.0574 27.3674V16.5002H94.0484ZM80.0431 27.8795H82.0807V16.5002H80.0718L80.0431 27.8795ZM80.0431 14.4519H82.0807V11.9485H80.0718L80.0431 14.4519ZM75.5659 27.8795H77.5749V11.4648H75.5659V27.8795ZM71.0888 27.8795H73.0978V11.4648H71.0888V27.8795ZM59.9534 21.3933C60.0622 20.4695 60.512 19.6183 61.2162 19.0036C61.9393 18.4033 62.8559 18.0803 63.7991 18.0933C64.6803 18.08 65.5365 18.3831 66.2099 18.9467C66.566 19.2536 66.8563 19.6283 67.0634 20.0486C67.2704 20.4689 67.3901 20.9262 67.4153 21.3933H59.9534ZM69.4242 23.1002C69.4719 22.7992 69.4911 22.4944 69.4816 22.1898C69.4859 21.1459 69.2503 20.1147 68.7928 19.1743C68.3534 18.2755 67.6796 17.5094 66.8413 16.9554C65.9517 16.3941 64.9101 16.1161 63.8565 16.1588C62.771 16.152 61.7024 16.4266 60.757 16.9554C59.8594 17.4655 59.1237 18.2144 58.6332 19.1174C58.1182 20.0595 57.861 21.1187 57.887 22.1898C57.861 23.261 58.1182 24.3202 58.6332 25.2623C59.1237 26.1652 59.8594 26.9142 60.757 27.4243C61.7024 27.9531 62.771 28.2277 63.8565 28.2209C65.0384 28.2323 66.197 27.8956 67.1857 27.2536C68.0798 26.6506 68.7462 25.7699 69.0798 24.7502H67.0135C66.768 25.278 66.3406 25.7017 65.8081 25.945C65.0894 26.3021 64.2846 26.4539 63.4838 26.3836C62.683 26.3133 61.9177 26.0235 61.2736 25.5467C60.9005 25.2464 60.5917 24.8753 60.365 24.4552C60.1383 24.0351 59.9984 23.5745 59.9534 23.1002H69.4242ZM57.6 16.5002H55.3614V12.8588H53.3812V16.5002H51.0852V18.4347H53.3812V27.8795H55.3901V18.4062H57.6287L57.6 16.5002ZM43.6233 26.2579C42.9018 26.264 42.1907 26.0878 41.557 25.7459C40.9387 25.3891 40.4245 24.8794 40.0646 24.2666C39.7254 23.6362 39.548 22.9327 39.548 22.2183C39.548 21.5039 39.7254 20.8004 40.0646 20.17C40.4083 19.545 40.9264 19.0314 41.557 18.6907C42.1929 18.3545 42.9026 18.1786 43.6233 18.1786C44.3441 18.1786 45.0537 18.3545 45.6897 18.6907C46.3079 19.0475 46.8222 19.5572 47.1821 20.17C47.5212 20.8004 47.6987 21.5039 47.6987 22.2183C47.6987 22.9327 47.5212 23.6362 47.1821 24.2666C46.8384 24.8916 46.3202 25.4052 45.6897 25.7459C45.0613 26.1012 44.3465 26.2784 43.6233 26.2579ZM47.7274 11.9485V18.4347C47.2537 17.7246 46.6035 17.1473 45.8395 16.7587C45.0754 16.37 44.2232 16.183 43.365 16.2157C42.353 16.2166 41.3605 16.4921 40.4951 17.0123C39.6102 17.5385 38.8784 18.2835 38.3713 19.1743C37.8445 20.0936 37.5675 21.1326 37.5675 22.1898C37.5675 23.247 37.8445 24.2861 38.3713 25.2054C38.8784 26.0962 39.6102 26.8412 40.4951 27.3674C41.3605 27.8876 42.353 28.1631 43.365 28.164C44.2421 28.1918 45.1118 27.9958 45.8906 27.595C46.6184 27.1865 47.2458 26.6229 47.7274 25.945V27.8795H49.7363V11.9485H47.7274ZM29.6466 26.2864C28.9252 26.2924 28.214 26.1162 27.5803 25.7743C26.962 25.4176 26.4478 24.9078 26.0879 24.295C25.7487 23.6646 25.5713 22.9612 25.5713 22.2467C25.5713 21.5323 25.7487 20.8289 26.0879 20.1985C26.4316 19.5735 26.9498 19.0599 27.5803 18.7192C28.2162 18.3829 28.9259 18.2071 29.6466 18.2071C30.3674 18.2071 31.0771 18.3829 31.713 18.7192C32.3313 19.0759 32.8455 19.5856 33.2054 20.1985C33.5446 20.8289 33.722 21.5323 33.722 22.2467C33.722 22.9612 33.5446 23.6646 33.2054 24.295C32.8617 24.92 32.3435 25.4336 31.713 25.7743C31.0847 26.1297 30.3698 26.3068 29.6466 26.2864ZM33.722 16.5002V18.4347C33.2484 17.7246 32.5982 17.1473 31.8341 16.7587C31.07 16.37 30.2178 16.183 29.3597 16.2157C28.3283 16.2189 27.3165 16.4948 26.4286 17.0149C25.5407 17.5349 24.8089 18.2804 24.3085 19.1743C23.7817 20.0936 23.5048 21.1326 23.5048 22.1898C23.5048 23.247 23.7817 24.2861 24.3085 25.2054C24.8089 26.0993 25.5407 26.8447 26.4286 27.3648C27.3165 27.8849 28.3283 28.1608 29.3597 28.164C30.2368 28.1918 31.1064 27.9958 31.8852 27.595C32.6131 27.1865 33.2404 26.6229 33.722 25.945V27.8795H35.731V16.5002H33.722Z" fill="black"/>
</svg>
