<svg width="64" height="64" viewBox="0 0 64 64" fill="none" xmlns="http://www.w3.org/2000/svg">
<rect width="64" height="64" rx="18" fill="white"/>
<path d="M26.2497 29.3043C27.0177 29.3043 27.641 28.681 27.641 27.913V22.4869C27.641 20.0612 29.6146 18.0869 32.0403 18.0869C34.4661 18.0869 36.4403 20.0612 36.4403 22.4869V27.913C36.4403 28.681 37.0629 29.3043 37.8316 29.3043C38.5996 29.3043 39.2229 28.681 39.2229 27.913V22.4869C39.2236 18.5266 36.0014 15.3043 32.0403 15.3043C28.0807 15.3043 24.8584 18.5266 24.8584 22.4869V27.913C24.8584 28.681 25.4817 29.3043 26.2497 29.3043Z" fill="url(#paint0_linear)"/>
<path d="M48 26.1781H40.615V27.9131C40.615 29.4477 39.367 30.6957 37.8324 30.6957C36.2977 30.6957 35.0498 29.4477 35.0498 27.9131V26.1781H29.0331V27.9131C29.0331 29.4477 27.7851 30.6957 26.2504 30.6957C24.7158 30.6957 23.4678 29.4477 23.4678 27.9131V26.1781H16C15.616 26.1781 15.3788 26.4807 15.4699 26.8536L20.3381 46.6776C20.6317 47.792 21.8045 48.6957 22.9565 48.6957H41.0435C42.1969 48.6957 43.3684 47.792 43.6633 46.6776L48.5301 26.8536C48.6212 26.48 48.3847 26.1781 48 26.1781Z" fill="url(#paint1_linear)"/>
<path d="M29.6349 33.6696C29.6349 33.1315 30.0707 32.6957 30.6088 32.6957C31.1469 32.6957 31.5827 33.1315 31.5827 33.6696V38.5044L31.5827 37.5652C31.5827 37.0272 32.0185 36.5913 32.5566 36.5913C33.0947 36.5913 33.5305 37.0272 33.5305 37.5652V38.7315C33.5393 38.2012 33.9719 37.0783 34.5043 37.0783C35.0422 37.0783 35.4782 37.5143 35.4782 38.0522C35.4782 38.0522 35.5068 38.7764 35.5709 38.8197C35.7267 38.4894 36.0628 37.5652 36.4522 37.5652C36.9901 37.5652 37.4261 38.0013 37.4261 38.5392V43.4087C37.4261 44.4844 36.554 45.3566 35.4783 45.3566H32.2225C31.1892 45.3566 30.1982 44.946 29.4678 44.2156L27.9304 42.6783L25.7391 41.6976C25.7427 40.7676 26.4713 40.487 27.2 40.487C27.8277 40.487 28.3921 40.5849 29.6348 41.2174L29.6349 33.6696Z" fill="white"/>
<defs>
<linearGradient id="paint0_linear" x1="32.0407" y1="15.3043" x2="32.0407" y2="29.3043" gradientUnits="userSpaceOnUse">
<stop stop-color="#EF8080"/>
<stop offset="1" stop-color="#F0145A"/>
</linearGradient>
<linearGradient id="paint1_linear" x1="32" y1="26.1781" x2="32" y2="48.6957" gradientUnits="userSpaceOnUse">
<stop stop-color="#EF8080"/>
<stop offset="1" stop-color="#F0145A"/>
</linearGradient>
</defs>
</svg>
